<svg xmlns="http://www.w3.org/2000/svg" xmlns:xlink="http://www.w3.org/1999/xlink" viewBox="0 0 24 30" version="1.1" x="0px" y="0px"><title>24pt_sol</title><desc>Created with Sketch.</desc><g stroke="none" stroke-width="1" fill="none" fill-rule="evenodd"><g fill="#000000"><path d="M12,2 C6.46666667,2 2,6.46666667 2,12 C2,17.5333333 6.46666667,22 12,22 C17.5333333,22 22,17.5333333 22,12 C22,6.46666667 17.5333333,2 12,2 L12,2 Z M12,4 C16.4363636,4 20,7.56363636 20,12 C20,16.4363636 16.4363636,20 12,20 C7.56363636,20 4,16.4363636 4,12 C4,7.56363636 7.56363636,4 12,4 L12,4 Z M12,14 C13.1045695,14 14,13.1045695 14,12 C14,10.8954305 13.1045695,10 12,10 C10.8954305,10 10,10.8954305 10,12 C10,13.1045695 10.8954305,14 12,14 L12,14 Z"/></g></g><text x="0" y="39" fill="#000000" font-size="5px" font-weight="bold" font-family="'Helvetica Neue', Helvetica, Arial-Unicode, Arial, Sans-serif">Created by Denis Klyuchnikov</text><text x="0" y="44" fill="#000000" font-size="5px" font-weight="bold" font-family="'Helvetica Neue', Helvetica, Arial-Unicode, Arial, Sans-serif">from the Noun Project</text></svg>