<svg xmlns="http://www.w3.org/2000/svg" xmlns:xlink="http://www.w3.org/1999/xlink" version="1.1" x="0px" y="0px" viewBox="0 0 100 125" enable-background="new 0 0 100 100" xml:space="preserve"><g display="none"><text transform="matrix(1 0 0 1 714.1189 -372.9161)" display="inline" font-family="'MyriadPro-Regular'" font-size="47px">aries // ram</text><text transform="matrix(1 0 0 1 715.6188 -224.2022)" display="inline" font-family="'MyriadPro-Regular'" font-size="47px">taurus // bull</text><text transform="matrix(1 0 0 1 714.1189 -116.7153)" display="inline" font-family="'MyriadPro-Regular'" font-size="47px">gemini // twins</text><text transform="matrix(1 0 0 1 715.6185 36.4176)" display="inline" font-family="'MyriadPro-Regular'" font-size="47px">cancer // crab</text><text transform="matrix(1 0 0 1 711.119 182.5695)" display="inline" font-family="'MyriadPro-Regular'" font-size="47px">leo // lion</text><text transform="matrix(1 0 0 1 709.6193 331.2584)" display="inline" font-family="'MyriadPro-Regular'" font-size="47px">virgo // virgin</text><text transform="matrix(1 0 0 1 708.1193 481.5025)" display="inline" font-family="'MyriadPro-Regular'" font-size="47px">libra // scales</text><text transform="matrix(1 0 0 1 706.6194 581.6652)" display="inline" font-family="'MyriadPro-Regular'" font-size="47px">scorpius // scorpion</text><text transform="matrix(1 0 0 1 702.8699 737.5874)" display="inline" font-family="'MyriadPro-Regular'" font-size="47px">sagitarius // archer</text><text transform="matrix(1 0 0 1 701.37 884.0735)" display="inline" font-family="'MyriadPro-Regular'" font-size="47px">capricornus // sea-goat</text><text transform="matrix(1 0 0 1 699.1201 1032.5271)" display="inline" font-family="'MyriadPro-Regular'" font-size="47px">Aquarius // Waterbearer</text><text transform="matrix(1 0 0 1 697.6201 1132.6898)" display="inline" font-family="'MyriadPro-Regular'" font-size="47px">Pisces // fish</text><circle display="inline" fill="none" stroke="#000000" stroke-width="4" stroke-miterlimit="10" cx="-545.3" cy="1930.5" r="25"/><path display="inline" fill="none" stroke="#000000" stroke-width="4" stroke-linecap="round" stroke-linejoin="round" stroke-miterlimit="10" d="   M-565.2,128.3c-9.2-3.7-15.6-12.7-15.6-23.2c0-10.5,6.5-19.5,15.6-23.2l0,0c-2.9-1.2-6.1-1.8-9.4-1.8c-13.8,0-25,11.2-25,25   s11.2,25,25,25C-571.3,130.1-568.1,129.4-565.2,128.3L-565.2,128.3z"/><path display="inline" fill="none" stroke="#000000" stroke-width="4" stroke-linecap="round" stroke-linejoin="round" stroke-miterlimit="10" d="   M-535.9,81.9c2.9-1.2,6-1.8,9.4-1.8c13.8,0,25,11.2,25,25s-11.2,25-25,25c-3.3,0-6.5-0.6-9.4-1.8l0,0c9.2-3.7,15.6-12.7,15.6-23.2   C-520.2,94.6-526.7,85.6-535.9,81.9L-535.9,81.9z"/><circle display="inline" fill="none" stroke="#000000" stroke-width="4" stroke-miterlimit="10" cx="-589.8" cy="196.7" r="25"/><line display="inline" fill="none" stroke="#000000" stroke-width="4" stroke-linecap="round" stroke-linejoin="round" stroke-miterlimit="10" x1="-608.8" y1="1476.2" x2="-608.8" y2="1502.4"/><line display="inline" fill="none" stroke="#000000" stroke-width="4" stroke-linecap="round" stroke-linejoin="round" stroke-miterlimit="10" x1="-595.7" y1="1502.4" x2="-621.9" y2="1502.4"/><line display="inline" fill="none" stroke="#000000" stroke-width="4" stroke-linecap="round" stroke-linejoin="round" stroke-miterlimit="10" x1="-671.9" y1="1346.4" x2="-671.9" y2="1372.6"/><line display="inline" fill="none" stroke="#000000" stroke-width="4" stroke-linecap="round" stroke-linejoin="round" stroke-miterlimit="10" x1="-658.8" y1="1359.5" x2="-685" y2="1359.5"/><path display="inline" fill="none" stroke="#000000" stroke-width="4" stroke-linecap="round" stroke-linejoin="round" stroke-miterlimit="10" d="   M-556.6,586.1c2.4,3.8,3.8,8.4,3.8,13.3c0,13.8-11.2,25-25,25c-13.8,0-25-11.2-25-25c0-4.9,1.4-9.4,3.8-13.3"/><line display="inline" fill="none" stroke="#000000" stroke-width="4" stroke-linecap="round" stroke-linejoin="round" stroke-miterlimit="10" x1="-579.8" y1="356.2" x2="-579.8" y2="425.8"/><line display="inline" fill="none" stroke="#000000" stroke-width="4" stroke-linecap="round" stroke-linejoin="round" stroke-miterlimit="10" x1="-566.7" y1="369.3" x2="-592.9" y2="369.3"/><line display="inline" fill="none" stroke="#000000" stroke-width="4" stroke-linecap="round" stroke-linejoin="round" stroke-miterlimit="10" x1="-577.8" y1="644.9" x2="-577.8" y2="575.3"/><line display="inline" fill="none" stroke="#000000" stroke-width="4" stroke-linecap="round" stroke-linejoin="round" stroke-miterlimit="10" x1="-591" y1="631.7" x2="-564.7" y2="631.7"/><line display="inline" fill="none" stroke="#000000" stroke-width="4" stroke-linecap="round" stroke-linejoin="round" stroke-miterlimit="10" x1="-587.1" y1="-13.6" x2="-587.1" y2="36.4"/><line display="inline" fill="none" stroke="#000000" stroke-width="4" stroke-linecap="round" stroke-linejoin="round" stroke-miterlimit="10" x1="-562.1" y1="11.4" x2="-612.1" y2="11.4"/><circle display="inline" fill="none" stroke="#000000" stroke-width="4" stroke-miterlimit="10" cx="-587.1" cy="-190.5" r="25"/><path display="inline" fill="none" stroke="#000000" stroke-width="4" stroke-linecap="round" stroke-linejoin="round" stroke-miterlimit="10" d="   M-567.8-221c0,4.1-1.3,7.9-3.5,11.1"/><path display="inline" fill="none" stroke="#000000" stroke-width="4" stroke-linecap="round" stroke-linejoin="round" stroke-miterlimit="10" d="   M-602.9-209.9c-2.2-3.1-3.5-7-3.5-11.1"/><line display="inline" fill="none" stroke="#000000" stroke-width="4" stroke-linecap="round" stroke-linejoin="round" stroke-miterlimit="10" x1="-587.1" y1="-165.5" x2="-587.1" y2="-139.3"/><line display="inline" fill="none" stroke="#000000" stroke-width="4" stroke-linecap="round" stroke-linejoin="round" stroke-miterlimit="10" x1="-574" y1="-152.4" x2="-600.2" y2="-152.4"/><path display="inline" fill="none" stroke="#000000" stroke-width="4" stroke-linecap="round" stroke-linejoin="round" stroke-miterlimit="10" d="   M-513.5-199.2c4.4-11.8,23.7-12.1,25.9,4.2c2.3,16.3-16.2,28.2-25.9,29.6"/><path display="inline" fill="none" stroke="#000000" stroke-width="4" stroke-linecap="round" stroke-linejoin="round" stroke-miterlimit="10" d="   M-593.9,269.6c4.4-11.8,23.7-12.1,25.9,4.2c2.3,16.3-16.2,28.2-25.9,29.6"/><path display="inline" fill="none" stroke="#000000" stroke-width="4" stroke-linecap="round" stroke-linejoin="round" stroke-miterlimit="10" d="   M-579.8,390c5.7-15.6,36.8-13.3,36.8,8.9c0,9.8-7.2,13-15.3,18c-6.2,3.8-2.4,10.7,2.5,10.7"/><g display="inline"><path fill="none" stroke="#000000" stroke-width="4" stroke-linecap="round" stroke-linejoin="round" stroke-miterlimit="10" d="    M-507.5-214.5c0,4.1-1.3,7.9-3.5,11.1"/><path fill="none" stroke="#000000" stroke-width="4" stroke-linecap="round" stroke-linejoin="round" stroke-miterlimit="10" d="    M-516.1-203.5c-2.2-3.1-3.5-7-3.5-11.1"/></g><line display="inline" fill="none" stroke="#000000" stroke-width="4" stroke-linecap="round" stroke-linejoin="round" stroke-miterlimit="10" x1="-513.5" y1="-165.5" x2="-513.5" y2="-139.3"/><line display="inline" fill="none" stroke="#000000" stroke-width="4" stroke-linecap="round" stroke-linejoin="round" stroke-miterlimit="10" x1="-500.4" y1="-152.4" x2="-526.6" y2="-152.4"/><circle display="inline" fill="none" stroke="#000000" stroke-width="4" stroke-miterlimit="10" cx="-587.1" cy="-93.3" r="25"/><line display="inline" fill="none" stroke="#000000" stroke-width="4" stroke-linecap="round" stroke-linejoin="round" stroke-miterlimit="10" x1="-587.1" y1="-68.3" x2="-587.1" y2="-42.1"/><line display="inline" fill="none" stroke="#000000" stroke-width="4" stroke-linecap="round" stroke-linejoin="round" stroke-miterlimit="10" x1="-574" y1="-55.2" x2="-600.2" y2="-55.2"/><circle display="inline" fill="none" stroke="#000000" stroke-width="4" stroke-miterlimit="10" cx="-511" cy="24.5" r="25"/><circle display="inline" fill="none" stroke="#000000" stroke-width="4" stroke-miterlimit="10" cx="-587.1" cy="11.4" r="25"/><line display="inline" fill="none" stroke="#000000" stroke-width="4" stroke-linecap="round" stroke-linejoin="round" stroke-miterlimit="10" x1="-511" y1="-0.5" x2="-511" y2="-26.7"/><line display="inline" fill="none" stroke="#000000" stroke-width="4" stroke-linecap="round" stroke-linejoin="round" stroke-miterlimit="10" x1="-524.1" y1="-13.6" x2="-497.8" y2="-13.6"/><path display="inline" fill="none" stroke="#000000" stroke-width="4" stroke-miterlimit="10" d="M-509.4,1758.5   c2.3,3.8,3.7,8.3,3.7,13.1c0,13.8-11.2,25-25,25c-13.8,0-25-11.2-25-25c0-4.8,1.4-9.3,3.7-13.1"/><circle display="inline" fill="none" stroke="#000000" stroke-width="4" stroke-miterlimit="10" cx="-582.8" cy="1323" r="25"/><line display="inline" fill="none" stroke="#000000" stroke-width="4" stroke-linecap="round" stroke-linejoin="round" stroke-miterlimit="10" x1="-582.8" y1="1348" x2="-582.8" y2="1374.2"/><line display="inline" fill="none" stroke="#000000" stroke-width="4" stroke-linecap="round" stroke-linejoin="round" stroke-miterlimit="10" x1="-569.7" y1="1361.1" x2="-595.9" y2="1361.1"/><line display="inline" fill="none" stroke="#000000" stroke-width="4" stroke-linecap="round" stroke-linejoin="round" stroke-miterlimit="10" x1="-644.8" y1="1236.7" x2="-644.8" y2="1262.9"/><line display="inline" fill="none" stroke="#000000" stroke-width="4" stroke-linecap="round" stroke-linejoin="round" stroke-miterlimit="10" x1="-631.7" y1="1249.8" x2="-657.9" y2="1249.8"/><line display="inline" fill="none" stroke="#000000" stroke-width="4" stroke-linecap="round" stroke-linejoin="round" stroke-miterlimit="10" x1="-652.4" y1="878.7" x2="-652.4" y2="933.7"/><line display="inline" fill="none" stroke="#000000" stroke-width="4" stroke-linecap="round" stroke-linejoin="round" stroke-miterlimit="10" x1="-624.9" y1="906.2" x2="-679.9" y2="906.2"/><path display="inline" fill="none" stroke="#000000" stroke-width="4" stroke-linecap="round" stroke-linejoin="round" stroke-miterlimit="10" d="   M-664.3,795.3c0-13.8,11.2-25,25-25c13.8,0,25,11.2,25,25c0,13.8-11.2,25-25,25"/><line display="inline" fill="none" stroke="#000000" stroke-width="4" stroke-linecap="round" stroke-linejoin="round" stroke-miterlimit="10" x1="-639.3" y1="820.3" x2="-639.3" y2="846.5"/><line display="inline" fill="none" stroke="#000000" stroke-width="4" stroke-linecap="round" stroke-linejoin="round" stroke-miterlimit="10" x1="-626.2" y1="833.4" x2="-652.4" y2="833.4"/><circle display="inline" fill="none" stroke="#000000" stroke-width="4" stroke-miterlimit="10" cx="-587.1" cy="-258.3" r="25"/><circle display="inline" cx="-587.1" cy="-258.3" r="3"/><line display="inline" fill="none" stroke="#000000" stroke-width="4" stroke-linecap="round" stroke-linejoin="round" stroke-miterlimit="10" x1="-527.6" y1="1912.8" x2="-509.1" y2="1894.3"/><line display="inline" fill="none" stroke="#000000" stroke-width="4" stroke-linecap="round" stroke-linejoin="round" stroke-miterlimit="10" x1="-626.7" y1="1082.6" x2="-644.8" y2="1090.1"/><line display="inline" fill="none" stroke="#000000" stroke-width="4" stroke-linecap="round" stroke-linejoin="round" stroke-miterlimit="10" x1="-626.7" y1="1097.6" x2="-644.8" y2="1090.1"/><circle display="inline" fill="none" stroke="#000000" stroke-width="4" stroke-miterlimit="10" cx="-582.4" cy="506.7" r="25"/><circle display="inline" cx="-582.4" cy="506.7" r="3"/><line display="inline" fill="none" stroke="#000000" stroke-width="4" stroke-linecap="round" stroke-linejoin="round" stroke-miterlimit="10" x1="-582.4" y1="481.7" x2="-582.4" y2="455.5"/><line display="inline" fill="none" stroke="#000000" stroke-width="4" stroke-linecap="round" stroke-linejoin="round" stroke-miterlimit="10" x1="-573.1" y1="464.8" x2="-582.4" y2="455.5"/><line display="inline" fill="none" stroke="#000000" stroke-width="4" stroke-linecap="round" stroke-linejoin="round" stroke-miterlimit="10" x1="-591.7" y1="464.8" x2="-582.4" y2="455.5"/><line display="inline" fill="none" stroke="#000000" stroke-width="4" stroke-linecap="round" stroke-linejoin="round" stroke-miterlimit="10" x1="-572" y1="179" x2="-553.4" y2="160.4"/><line display="inline" fill="none" stroke="#000000" stroke-width="4" stroke-linecap="round" stroke-linejoin="round" stroke-miterlimit="10" x1="-553.4" y1="173.5" x2="-553.4" y2="160.4"/><line display="inline" fill="none" stroke="#000000" stroke-width="4" stroke-linecap="round" stroke-linejoin="round" stroke-miterlimit="10" x1="-566.6" y1="160.4" x2="-553.4" y2="160.4"/><line display="inline" fill="none" stroke="#000000" stroke-width="4" stroke-linecap="round" stroke-linejoin="round" stroke-miterlimit="10" x1="-489.4" y1="181.7" x2="-489.4" y2="168.6"/><line display="inline" fill="none" stroke="#000000" stroke-width="4" stroke-linecap="round" stroke-linejoin="round" stroke-miterlimit="10" x1="-502.5" y1="168.6" x2="-489.4" y2="168.6"/><path display="inline" fill="none" stroke="#000000" stroke-width="4" stroke-linecap="round" stroke-linejoin="round" stroke-miterlimit="10" d="   M-513.6-199.2c-4.4-11.8-23.7-12.1-25.9,4.2c-2.3,16.3,16.2,28.2,25.9,29.6"/><path display="inline" fill="none" stroke="#000000" stroke-width="4" stroke-linecap="round" stroke-linejoin="round" stroke-miterlimit="10" d="   M-513.5-108.2c4.4-11.8,23.7-12.1,25.9,4.2c2.3,16.3-16.2,28.2-25.9,29.6"/><line display="inline" fill="none" stroke="#000000" stroke-width="4" stroke-linecap="round" stroke-linejoin="round" stroke-miterlimit="10" x1="-513.5" y1="-74.5" x2="-513.5" y2="-48.2"/><line display="inline" fill="none" stroke="#000000" stroke-width="4" stroke-linecap="round" stroke-linejoin="round" stroke-miterlimit="10" x1="-500.4" y1="-61.4" x2="-526.6" y2="-61.4"/><path display="inline" fill="none" stroke="#000000" stroke-width="4" stroke-linecap="round" stroke-linejoin="round" stroke-miterlimit="10" d="   M-513.6-108.2c-4.4-11.8-23.7-12.1-25.9,4.2c-2.3,16.3,16.2,28.2,25.9,29.6"/><path display="inline" fill="none" stroke="#000000" stroke-width="4" stroke-linecap="round" stroke-linejoin="round" stroke-miterlimit="10" d="   M-531.8,211c-11.4,5.3-25.3-8.2-15.4-21.3c10-13.2,31.3-8.5,39.3-2.6"/><line display="inline" fill="none" stroke="#000000" stroke-width="4" stroke-linecap="round" stroke-linejoin="round" stroke-miterlimit="10" x1="-507.9" y1="187.2" x2="-489.4" y2="168.6"/><path display="inline" fill="none" stroke="#000000" stroke-width="4" stroke-linecap="round" stroke-linejoin="round" stroke-miterlimit="10" d="   M-531.7,211.1c-5.3,11.4,8.2,25.3,21.3,15.4c13.2-10,8.5-31.3,2.6-39.3"/><path display="inline" fill="none" stroke="#000000" stroke-width="4" stroke-linecap="round" stroke-linejoin="round" stroke-miterlimit="10" d="   M-599.7,677.2c12.1-2,23.9,6.4,23.9,19.4c0,12.9-11.8,21.4-23.9,19.4"/><line display="inline" fill="none" stroke="#000000" stroke-width="4" stroke-linecap="round" stroke-linejoin="round" stroke-miterlimit="10" x1="-600.2" y1="677.2" x2="-600.2" y2="740.9"/><line display="inline" fill="none" stroke="#000000" stroke-width="4" stroke-linecap="round" stroke-linejoin="round" stroke-miterlimit="10" x1="-574" y1="740.9" x2="-600.2" y2="740.9"/><path display="inline" fill="none" stroke="#000000" stroke-width="4" stroke-linecap="round" stroke-linejoin="round" stroke-miterlimit="10" d="   M-499.9,687.5c0,13.8-11.2,25-25,25s-25-11.2-25-25"/><line display="inline" fill="none" stroke="#000000" stroke-width="4" stroke-linecap="round" stroke-linejoin="round" stroke-miterlimit="10" x1="-524.9" y1="712.5" x2="-524.9" y2="738.7"/><line display="inline" fill="none" stroke="#000000" stroke-width="4" stroke-linecap="round" stroke-linejoin="round" stroke-miterlimit="10" x1="-511.8" y1="725.6" x2="-538.1" y2="725.6"/><circle display="inline" fill="none" stroke="#000000" stroke-width="4" stroke-linecap="round" stroke-linejoin="round" stroke-miterlimit="10" cx="-524.9" cy="687.5" r="12.5"/><circle display="inline" fill="none" stroke="#000000" stroke-width="4" stroke-miterlimit="10" cx="-644.8" cy="1127" r="12.5"/><line display="inline" fill="none" stroke="#000000" stroke-width="4" stroke-linecap="round" stroke-linejoin="round" stroke-miterlimit="10" x1="-644.8" y1="1065.8" x2="-644.8" y2="1114.5"/><circle display="inline" fill="none" stroke="#000000" stroke-width="4" stroke-miterlimit="10" cx="-555.9" cy="1746.6" r="12.5"/><circle display="inline" fill="none" stroke="#000000" stroke-width="4" stroke-miterlimit="10" cx="-505.7" cy="1746.6" r="12.5"/><path display="inline" fill="none" stroke="#000000" stroke-width="4" stroke-miterlimit="10" d="M-562.4,1659.8   c-2.3-3.8-3.7-8.3-3.7-13.1c0-13.8,11.2-25,25-25s25,11.2,25,25c0,4.8-1.4,9.3-3.7,13.1"/><circle display="inline" fill="none" stroke="#000000" stroke-width="4" stroke-miterlimit="10" cx="-515.9" cy="1671.7" r="12.5"/><circle display="inline" fill="none" stroke="#000000" stroke-width="4" stroke-miterlimit="10" cx="-566.1" cy="1671.7" r="12.5"/><circle display="inline" fill="none" stroke="#000000" stroke-width="4" stroke-miterlimit="10" cx="-642" cy="1020.8" r="12.5"/><line display="inline" fill="none" stroke="#000000" stroke-width="4" stroke-linecap="round" stroke-linejoin="round" stroke-miterlimit="10" x1="-598.8" y1="977.6" x2="-633.2" y2="1012"/><line display="inline" fill="none" stroke="#000000" stroke-width="4" stroke-linecap="round" stroke-linejoin="round" stroke-miterlimit="10" x1="-619.7" y1="964.6" x2="-650.9" y2="1012"/><line display="inline" fill="none" stroke="#000000" stroke-width="4" stroke-linecap="round" stroke-linejoin="round" stroke-miterlimit="10" x1="-559" y1="274" x2="-559" y2="322.6"/><line display="inline" fill="none" stroke="#000000" stroke-width="4" stroke-linecap="round" stroke-linejoin="round" stroke-miterlimit="10" x1="-545.2" y1="303.4" x2="-593.9" y2="303.4"/><circle display="inline" fill="none" stroke="#000000" stroke-width="4" stroke-miterlimit="10" cx="-512.4" cy="513.1" r="25"/><path display="inline" fill="none" stroke="#000000" stroke-width="4" stroke-linecap="round" stroke-linejoin="round" stroke-miterlimit="10" d="   M-536,453.9c6.1,2.7,10.4,8.9,10.4,16c0,7.1-4.3,13.3-10.4,16"/><line display="inline" fill="none" stroke="#000000" stroke-width="4" stroke-linecap="round" stroke-linejoin="round" stroke-miterlimit="10" x1="-512.4" y1="456.9" x2="-512.4" y2="488.1"/><line display="inline" fill="none" stroke="#000000" stroke-width="4" stroke-linecap="round" stroke-linejoin="round" stroke-miterlimit="10" x1="-499.3" y1="470" x2="-525.6" y2="470"/><path display="inline" fill="none" stroke="#000000" stroke-width="4" stroke-linecap="round" stroke-linejoin="round" stroke-miterlimit="10" d="   M-488.9,453.9c-6.1,2.7-10.4,8.9-10.4,16c0,7.1,4.3,13.3,10.4,16"/><circle display="inline" fill="none" stroke="#000000" stroke-width="4" stroke-miterlimit="10" cx="-443.3" cy="519.2" r="12.5"/><line display="inline" fill="none" stroke="#000000" stroke-width="4" stroke-linecap="round" stroke-linejoin="round" stroke-miterlimit="10" x1="-443.3" y1="458.1" x2="-443.3" y2="506.7"/><line display="inline" fill="none" stroke="#000000" stroke-width="4" stroke-linecap="round" stroke-linejoin="round" stroke-miterlimit="10" x1="-430.2" y1="482.1" x2="-456.4" y2="482.1"/><polyline display="inline" fill="none" stroke="#000000" stroke-width="4" stroke-linecap="round" stroke-linejoin="round" stroke-miterlimit="10" points="   -466.9,465.7 -456.4,465.7 -456.4,498.5 -466.9,498.5  "/><polyline display="inline" fill="none" stroke="#000000" stroke-width="4" stroke-linecap="round" stroke-linejoin="round" stroke-miterlimit="10" points="   -419.8,465.7 -430.2,465.7 -430.2,498.5 -419.8,498.5  "/><text transform="matrix(1 0 0 1 -792.2158 -247.4795)" display="inline" font-family="'MyriadPro-Regular'" font-size="47px">sun</text><text transform="matrix(1 0 0 1 -790.7159 -178.5005)" display="inline" font-family="'MyriadPro-Regular'" font-size="47px">mercury</text><text transform="matrix(1 0 0 1 -792.2158 -78.3379)" display="inline" font-family="'MyriadPro-Regular'" font-size="47px">venus</text><text transform="matrix(1 0 0 1 -793.7158 21.8248)" display="inline" font-family="'MyriadPro-Regular'" font-size="47px">earth</text><text transform="matrix(1 0 0 1 -795.2157 121.9875)" display="inline" font-family="'MyriadPro-Regular'" font-size="47px">moon</text><text transform="matrix(1 0 0 1 -796.7156 222.1501)" display="inline" font-family="'MyriadPro-Regular'" font-size="47px">mars</text><text transform="matrix(1 0 0 1 -798.2156 322.3128)" display="inline" font-family="'MyriadPro-Regular'" font-size="47px">jupiter</text><text transform="matrix(1 0 0 1 -799.7155 422.4755)" display="inline" font-family="'MyriadPro-Regular'" font-size="47px">saturn</text><text transform="matrix(1 0 0 1 -801.2153 522.6381)" display="inline" font-family="'MyriadPro-Regular'" font-size="47px">uranus</text><text transform="matrix(1 0 0 1 -802.7153 622.8008)" display="inline" font-family="'MyriadPro-Regular'" font-size="47px">neptune</text><text transform="matrix(1 0 0 1 -804.2152 722.9634)" display="inline" font-family="'MyriadPro-Regular'" font-size="47px">pluto</text><text transform="matrix(1 0 0 1 -805.7152 823.1261)" display="inline" font-family="'MyriadPro-Regular'" font-size="47px">ceres</text><text transform="matrix(1 0 0 1 -807.2151 923.2888)" display="inline" font-family="'MyriadPro-Regular'" font-size="47px">star</text><text transform="matrix(1 0 0 1 -808.715 1023.4515)" display="inline" font-family="'MyriadPro-Regular'" font-size="47px">comet</text><text transform="matrix(1 0 0 1 -810.215 1123.6143)" display="inline" font-family="'MyriadPro-Regular'" font-size="47px">chiron</text><text transform="matrix(1 0 0 1 -811.7148 1223.777)" display="inline" font-family="'MyriadPro-Regular'" font-size="47px">pallas</text><text transform="matrix(1 0 0 1 -810.8014 1364.6893)" display="inline" font-family="'MyriadPro-Regular'" font-size="47px">juno</text><text transform="matrix(1 0 0 1 -817.5511 1665.1776)" display="inline" font-family="'MyriadPro-Regular'" font-size="47px">north node</text><text transform="matrix(1 0 0 1 -819.0511 1765.3403)" display="inline" font-family="'MyriadPro-Regular'" font-size="47px">south node</text><text transform="matrix(1 0 0 1 -798.8857 1474.3112)" display="inline" font-family="'MyriadPro-Regular'" font-size="47px">hebe</text><text transform="matrix(1 0 0 1 -818.301 1955.4985)" display="inline" font-family="'MyriadPro-Regular'" font-size="47px">conjuction</text><text transform="matrix(1 0 0 1 -818.301 2045.4941)" display="inline" font-family="'MyriadPro-Regular'" font-size="47px">opposition</text><line display="inline" fill="none" stroke="#000000" stroke-width="4" stroke-linecap="round" stroke-linejoin="round" stroke-miterlimit="10" x1="-633" y1="886.8" x2="-671.9" y2="925.7"/><line display="inline" fill="none" stroke="#000000" stroke-width="4" stroke-linecap="round" stroke-linejoin="round" stroke-miterlimit="10" x1="-633" y1="925.7" x2="-671.9" y2="886.8"/><line display="inline" fill="none" stroke="#000000" stroke-width="4" stroke-linecap="round" stroke-linejoin="round" stroke-miterlimit="10" x1="-671.9" y1="1291.4" x2="-671.9" y2="1346.4"/><line display="inline" fill="none" stroke="#000000" stroke-width="4" stroke-linecap="round" stroke-linejoin="round" stroke-miterlimit="10" x1="-644.4" y1="1318.9" x2="-699.4" y2="1318.9"/><line display="inline" fill="none" stroke="#000000" stroke-width="4" stroke-linecap="round" stroke-linejoin="round" stroke-miterlimit="10" x1="-652.4" y1="1299.4" x2="-691.3" y2="1338.3"/><line display="inline" fill="none" stroke="#000000" stroke-width="4" stroke-linecap="round" stroke-linejoin="round" stroke-miterlimit="10" x1="-652.4" y1="1338.3" x2="-691.3" y2="1299.4"/><line display="inline" fill="none" stroke="#000000" stroke-width="4" stroke-linecap="round" stroke-linejoin="round" stroke-miterlimit="10" x1="-563.3" y1="1278.6" x2="-582.8" y2="1298"/><line display="inline" fill="none" stroke="#000000" stroke-width="4" stroke-linecap="round" stroke-linejoin="round" stroke-miterlimit="10" x1="-582.8" y1="1298" x2="-602.2" y2="1278.6"/><line display="inline" fill="none" stroke="#000000" stroke-width="4" stroke-linecap="round" stroke-linejoin="round" stroke-miterlimit="10" x1="-585.8" y1="998.5" x2="-633.2" y2="1029.7"/><circle display="inline" fill="none" stroke="#000000" stroke-width="4" stroke-miterlimit="10" cx="-549.7" cy="1020.9" r="12.5"/><line display="inline" fill="none" stroke="#000000" stroke-width="4" stroke-linecap="round" stroke-linejoin="round" stroke-miterlimit="10" x1="-527.4" y1="964.6" x2="-558.6" y2="1012.1"/><line display="inline" fill="none" stroke="#000000" stroke-width="4" stroke-linecap="round" stroke-linejoin="round" stroke-miterlimit="10" x1="-493.5" y1="998.6" x2="-540.9" y2="1029.7"/><g display="inline"><line fill="none" stroke="#000000" stroke-width="4" stroke-linecap="round" stroke-linejoin="round" stroke-miterlimit="10" x1="-513.1" y1="971.9" x2="-544.7" y2="1008.5"/><line fill="none" stroke="#000000" stroke-width="4" stroke-linecap="round" stroke-linejoin="round" stroke-miterlimit="10" x1="-500.7" y1="984.2" x2="-537.4" y2="1015.8"/></g><line display="inline" fill="none" stroke="#000000" stroke-width="4" stroke-linecap="round" stroke-linejoin="round" stroke-miterlimit="10" x1="-568.6" y1="584.5" x2="-577.8" y2="575.3"/><line display="inline" fill="none" stroke="#000000" stroke-width="4" stroke-linecap="round" stroke-linejoin="round" stroke-miterlimit="10" x1="-587.1" y1="584.5" x2="-577.8" y2="575.3"/><line display="inline" fill="none" stroke="#000000" stroke-width="4" stroke-linecap="round" stroke-linejoin="round" stroke-miterlimit="10" x1="-544.7" y1="591.6" x2="-556.6" y2="586"/><line display="inline" fill="none" stroke="#000000" stroke-width="4" stroke-linecap="round" stroke-linejoin="round" stroke-miterlimit="10" x1="-562.2" y1="597.8" x2="-556.6" y2="586"/><line display="inline" fill="none" stroke="#000000" stroke-width="4" stroke-linecap="round" stroke-linejoin="round" stroke-miterlimit="10" x1="-610.8" y1="591.6" x2="-598.9" y2="586"/><line display="inline" fill="none" stroke="#000000" stroke-width="4" stroke-linecap="round" stroke-linejoin="round" stroke-miterlimit="10" x1="-593.3" y1="597.8" x2="-598.9" y2="586"/><rect x="-669.8" y="1176.4" transform="matrix(-0.7071 0.7071 -0.7071 -0.7071 -251.3026 2506.8218)" display="inline" fill="none" stroke="#000000" stroke-width="4" stroke-linecap="round" stroke-linejoin="round" stroke-miterlimit="10" width="50" height="50"/><line display="inline" fill="none" stroke="#000000" stroke-width="4" stroke-linecap="round" stroke-linejoin="round" stroke-miterlimit="10" x1="-575.6" y1="1271.5" x2="-582.8" y2="1298"/><line display="inline" fill="none" stroke="#000000" stroke-width="4" stroke-linecap="round" stroke-linejoin="round" stroke-miterlimit="10" x1="-589.9" y1="1271.5" x2="-582.8" y2="1298"/><polygon display="inline" fill="none" stroke="#000000" stroke-width="4" stroke-linecap="round" stroke-linejoin="round" stroke-miterlimit="10" points="   -583.8,1419.1 -608.8,1476.2 -633.8,1419.1  "/><circle display="inline" fill="none" stroke="#000000" stroke-width="4" stroke-miterlimit="10" cx="-565.1" cy="2072.5" r="25"/><line display="inline" fill="none" stroke="#000000" stroke-width="4" stroke-linecap="round" stroke-linejoin="round" stroke-miterlimit="10" x1="-547.4" y1="2054.8" x2="-528.8" y2="2036.3"/><circle display="inline" fill="none" stroke="#000000" stroke-width="4" stroke-miterlimit="10" cx="-511" cy="2018.5" r="25"/><path display="inline" d="M94.6,95.6c-8-3.1-16.3-5.4-24.7-6.8V11.1c8.4-1.4,16.7-3.6,24.7-6.8   c1-0.4,1.5-1.6,1.1-2.6c-0.4-1-1.6-1.5-2.6-1.1C79.4,6,64.9,8.7,50,8.7C35.1,8.7,20.6,6,6.8,0.6c-1-0.4-2.2,0.1-2.6,1.1   S4.3,4,5.4,4.4c8,3.1,16.3,5.4,24.7,6.8v77.7c-8.4,1.4-16.7,3.6-24.7,6.8c-1,0.4-1.5,1.6-1.1,2.6c0.3,0.8,1.1,1.3,1.9,1.3   c0.2,0,0.5,0,0.7-0.1C20.6,94,35.1,91.3,50,91.3c14.9,0,29.4,2.7,43.2,8.1c1,0.4,2.2-0.1,2.6-1.1C96.2,97.2,95.7,96,94.6,95.6z    M34.1,88.3V11.7c5.3,0.7,10.6,1,15.9,1c5.4,0,10.7-0.4,15.9-1v76.6c-5.3-0.7-10.6-1-15.9-1C44.6,87.3,39.3,87.6,34.1,88.3z"/><path display="inline" d="M98.2,11.6c-10.6-3.9-20-0.4-25.2,9.5c-4,7.6-9.9,15.4-23,15.4s-18.9-7.8-23-15.4   c-5.2-9.8-14.7-13.4-25.2-9.5c-1,0.4-1.6,1.5-1.2,2.6c0.4,1,1.5,1.6,2.6,1.2c12.3-4.5,18.3,3.8,20.3,7.6c3.2,6,7.8,12.6,15.9,15.7   C30,42.8,23.3,52.2,23.3,63.2c0,14.7,12,26.7,26.7,26.7s26.7-12,26.7-26.7c0-11-6.7-20.4-16.2-24.5C68.7,35.6,73.3,29,76.5,23   c2-3.8,8-12.1,20.3-7.6c1,0.4,2.2-0.1,2.6-1.2C99.8,13.1,99.2,12,98.2,11.6z M72.7,63.2c0,12.5-10.2,22.7-22.7,22.7   S27.3,75.7,27.3,63.2S37.5,40.5,50,40.5S72.7,50.7,72.7,63.2z"/><path display="inline" d="M98.9,64.2c-1.6-4.8-5.9-7.9-12.2-8.8c-11.3-1.5-20.8,2.8-29.4,8   c-1.7-5.6-2.9-11.9-4-17.8c-3.2-16.5-6.2-32-18.1-31.3c-4.9,0.3-8.9,2.3-12,6c-5.3,6.3-6.8,16.2-7.1,23.3   C13.2,37.1,11.4,31,10,25.8C8.1,19,6.7,14.1,3.5,12.3c-1-0.6-2.2-0.2-2.7,0.7c-0.6,1-0.2,2.2,0.7,2.7c1.8,1.1,3.1,5.8,4.6,11.2   c2,7,4.7,16.6,10.4,26.4c0.5,0.8,1.4,1.2,2.3,0.9c0.9-0.3,1.5-1.2,1.4-2.1c0-0.2-1.9-19.9,6-29.1c2.4-2.8,5.4-4.3,9.2-4.6   c7.8-0.5,10.6,10.8,13.9,28c1.2,6.4,2.5,13.1,4.4,19.2c-1,0.7-2.1,1.3-3.1,2C43.9,72,37.4,76.2,31,77.2   c-15.3,2.5-22.2-10.5-22.4-11c-0.5-1-1.7-1.4-2.7-0.9c-1,0.5-1.4,1.7-0.9,2.7c0.1,0.2,8.4,16.1,26.7,13.2   C38.9,80,45.7,75.6,52.9,71c0.7-0.5,1.5-1,2.2-1.5c3,7.9,7.2,14.3,14.1,16.9c2.9,1.1,5.8,1.6,8.6,1.6c5.7,0,11.1-2.1,15.3-6.2   C98.4,76.8,100.7,69.8,98.9,64.2z M90.4,79c-2.5,2.4-9.4,7.5-19.8,3.7c-5.8-2.1-9.4-8-12-15.3c8.4-5.1,17.2-9.3,27.6-7.9   c4.8,0.7,7.9,2.8,8.9,6.1C96.4,69.6,94.5,75,90.4,79z"/></g><g><path d="M73.9,7.6C63,7.6,53.7,14.4,50,24C46.3,14.4,37,7.6,26.1,7.6C12,7.6,0.5,19.1,0.5,33.2   C0.5,40,3.2,46.5,8,51.3c0.3,0.3,0.8,0.5,1.2,0.5s0.9-0.2,1.2-0.5c0.7-0.7,0.7-1.8,0-2.4c-4.2-4.2-6.5-9.8-6.5-15.7   C3.9,21,13.9,11,26.1,11s22.2,10,22.2,22.2v57.5c0,0.9,0.8,1.7,1.7,1.7s1.7-0.8,1.7-1.7V33.2C51.7,21,61.7,11,73.9,11   c12.2,0,22.2,10,22.2,22.2c0,5.9-2.3,11.5-6.5,15.7c-0.7,0.7-0.7,1.8,0,2.4c0.3,0.3,0.8,0.5,1.2,0.5c0.4,0,0.9-0.2,1.2-0.5   c4.8-4.8,7.5-11.3,7.5-18.1C99.5,19.1,88,7.6,73.9,7.6z"/></g><text x="0" y="115" fill="#000000" font-size="5px" font-weight="bold" font-family="'Helvetica Neue', Helvetica, Arial-Unicode, Arial, Sans-serif">Created by Ilaria Bernareggi</text><text x="0" y="120" fill="#000000" font-size="5px" font-weight="bold" font-family="'Helvetica Neue', Helvetica, Arial-Unicode, Arial, Sans-serif">from the Noun Project</text></svg>