<svg xmlns="http://www.w3.org/2000/svg" xmlns:xlink="http://www.w3.org/1999/xlink" version="1.1" x="0px" y="0px" viewBox="0 0 100 125" enable-background="new 0 0 100 100" xml:space="preserve"><g display="none"><text transform="matrix(1 0 0 1 504.8754 -195.9893)" display="inline" font-family="'MyriadPro-Regular'" font-size="47px">aries // ram</text><text transform="matrix(1 0 0 1 486.2822 -56.4604)" display="inline" font-family="'MyriadPro-Regular'" font-size="47px">taurus // bull</text><text transform="matrix(1 0 0 1 484.7823 51.0264)" display="inline" font-family="'MyriadPro-Regular'" font-size="47px">gemini // twins</text><text transform="matrix(1 0 0 1 486.282 204.1594)" display="inline" font-family="'MyriadPro-Regular'" font-size="47px">cancer // crab</text><text transform="matrix(1 0 0 1 481.7825 350.3112)" display="inline" font-family="'MyriadPro-Regular'" font-size="47px">leo // lion</text><text transform="matrix(1 0 0 1 480.2827 499.0002)" display="inline" font-family="'MyriadPro-Regular'" font-size="47px">virgo // virgin</text><text transform="matrix(1 0 0 1 478.7827 649.2443)" display="inline" font-family="'MyriadPro-Regular'" font-size="47px">libra // scales</text><text transform="matrix(1 0 0 1 477.2828 749.4069)" display="inline" font-family="'MyriadPro-Regular'" font-size="47px">scorpius // scorpion</text><text transform="matrix(1 0 0 1 473.5333 905.3291)" display="inline" font-family="'MyriadPro-Regular'" font-size="47px">sagitarius // archer</text><text transform="matrix(1 0 0 1 472.0334 1051.8152)" display="inline" font-family="'MyriadPro-Regular'" font-size="47px">capricornus // sea-goat</text><text transform="matrix(1 0 0 1 469.7836 1200.2688)" display="inline" font-family="'MyriadPro-Regular'" font-size="47px">Aquarius // Waterbearer</text><text transform="matrix(1 0 0 1 468.2836 1300.4315)" display="inline" font-family="'MyriadPro-Regular'" font-size="47px">Pisces // fish</text><circle display="inline" fill="none" stroke="#000000" stroke-width="4" stroke-miterlimit="10" cx="-845.3" cy="1738.5" r="25"/><path display="inline" fill="none" stroke="#000000" stroke-width="4" stroke-linecap="round" stroke-linejoin="round" stroke-miterlimit="10" d="   M-865.2-63.7c-9.2-3.7-15.6-12.7-15.6-23.2c0-10.5,6.5-19.5,15.6-23.2l0,0c-2.9-1.2-6.1-1.8-9.4-1.8c-13.8,0-25,11.2-25,25   s11.2,25,25,25C-871.3-61.9-868.1-62.6-865.2-63.7L-865.2-63.7z"/><path display="inline" fill="none" stroke="#000000" stroke-width="4" stroke-linecap="round" stroke-linejoin="round" stroke-miterlimit="10" d="   M-835.9-110.1c2.9-1.2,6-1.8,9.4-1.8c13.8,0,25,11.2,25,25s-11.2,25-25,25c-3.3,0-6.5-0.6-9.4-1.8l0,0c9.2-3.7,15.6-12.7,15.6-23.2   C-820.2-97.4-826.7-106.4-835.9-110.1L-835.9-110.1z"/><circle display="inline" fill="none" stroke="#000000" stroke-width="4" stroke-miterlimit="10" cx="-889.8" cy="4.7" r="25"/><line display="inline" fill="none" stroke="#000000" stroke-width="4" stroke-linecap="round" stroke-linejoin="round" stroke-miterlimit="10" x1="-908.8" y1="1284.2" x2="-908.8" y2="1310.4"/><line display="inline" fill="none" stroke="#000000" stroke-width="4" stroke-linecap="round" stroke-linejoin="round" stroke-miterlimit="10" x1="-895.7" y1="1310.4" x2="-921.9" y2="1310.4"/><line display="inline" fill="none" stroke="#000000" stroke-width="4" stroke-linecap="round" stroke-linejoin="round" stroke-miterlimit="10" x1="-971.9" y1="1154.4" x2="-971.9" y2="1180.6"/><line display="inline" fill="none" stroke="#000000" stroke-width="4" stroke-linecap="round" stroke-linejoin="round" stroke-miterlimit="10" x1="-958.8" y1="1167.5" x2="-985" y2="1167.5"/><path display="inline" fill="none" stroke="#000000" stroke-width="4" stroke-linecap="round" stroke-linejoin="round" stroke-miterlimit="10" d="   M-856.6,394.1c2.4,3.8,3.8,8.4,3.8,13.3c0,13.8-11.2,25-25,25c-13.8,0-25-11.2-25-25c0-4.9,1.4-9.4,3.8-13.3"/><line display="inline" fill="none" stroke="#000000" stroke-width="4" stroke-linecap="round" stroke-linejoin="round" stroke-miterlimit="10" x1="-879.8" y1="164.2" x2="-879.8" y2="233.8"/><line display="inline" fill="none" stroke="#000000" stroke-width="4" stroke-linecap="round" stroke-linejoin="round" stroke-miterlimit="10" x1="-866.7" y1="177.3" x2="-892.9" y2="177.3"/><line display="inline" fill="none" stroke="#000000" stroke-width="4" stroke-linecap="round" stroke-linejoin="round" stroke-miterlimit="10" x1="-877.8" y1="452.9" x2="-877.8" y2="383.3"/><line display="inline" fill="none" stroke="#000000" stroke-width="4" stroke-linecap="round" stroke-linejoin="round" stroke-miterlimit="10" x1="-891" y1="439.7" x2="-864.7" y2="439.7"/><line display="inline" fill="none" stroke="#000000" stroke-width="4" stroke-linecap="round" stroke-linejoin="round" stroke-miterlimit="10" x1="-887.1" y1="-205.6" x2="-887.1" y2="-155.6"/><line display="inline" fill="none" stroke="#000000" stroke-width="4" stroke-linecap="round" stroke-linejoin="round" stroke-miterlimit="10" x1="-862.1" y1="-180.6" x2="-912.1" y2="-180.6"/><circle display="inline" fill="none" stroke="#000000" stroke-width="4" stroke-miterlimit="10" cx="-887.1" cy="-382.5" r="25"/><path display="inline" fill="none" stroke="#000000" stroke-width="4" stroke-linecap="round" stroke-linejoin="round" stroke-miterlimit="10" d="   M-867.8-413c0,4.1-1.3,7.9-3.5,11.1"/><path display="inline" fill="none" stroke="#000000" stroke-width="4" stroke-linecap="round" stroke-linejoin="round" stroke-miterlimit="10" d="   M-902.9-401.9c-2.2-3.1-3.5-7-3.5-11.1"/><line display="inline" fill="none" stroke="#000000" stroke-width="4" stroke-linecap="round" stroke-linejoin="round" stroke-miterlimit="10" x1="-887.1" y1="-357.5" x2="-887.1" y2="-331.3"/><line display="inline" fill="none" stroke="#000000" stroke-width="4" stroke-linecap="round" stroke-linejoin="round" stroke-miterlimit="10" x1="-874" y1="-344.4" x2="-900.2" y2="-344.4"/><path display="inline" fill="none" stroke="#000000" stroke-width="4" stroke-linecap="round" stroke-linejoin="round" stroke-miterlimit="10" d="   M-813.5-391.2c4.4-11.8,23.7-12.1,25.9,4.2c2.3,16.3-16.2,28.2-25.9,29.6"/><path display="inline" fill="none" stroke="#000000" stroke-width="4" stroke-linecap="round" stroke-linejoin="round" stroke-miterlimit="10" d="   M-893.9,77.6c4.4-11.8,23.7-12.1,25.9,4.2c2.3,16.3-16.2,28.2-25.9,29.6"/><path display="inline" fill="none" stroke="#000000" stroke-width="4" stroke-linecap="round" stroke-linejoin="round" stroke-miterlimit="10" d="   M-879.8,198c5.7-15.6,36.8-13.3,36.8,8.9c0,9.8-7.2,13-15.3,18c-6.2,3.8-2.4,10.7,2.5,10.7"/><g display="inline"><path fill="none" stroke="#000000" stroke-width="4" stroke-linecap="round" stroke-linejoin="round" stroke-miterlimit="10" d="    M-807.5-406.5c0,4.1-1.3,7.9-3.5,11.1"/><path fill="none" stroke="#000000" stroke-width="4" stroke-linecap="round" stroke-linejoin="round" stroke-miterlimit="10" d="    M-816.1-395.5c-2.2-3.1-3.5-7-3.5-11.1"/></g><line display="inline" fill="none" stroke="#000000" stroke-width="4" stroke-linecap="round" stroke-linejoin="round" stroke-miterlimit="10" x1="-813.5" y1="-357.5" x2="-813.5" y2="-331.3"/><line display="inline" fill="none" stroke="#000000" stroke-width="4" stroke-linecap="round" stroke-linejoin="round" stroke-miterlimit="10" x1="-800.4" y1="-344.4" x2="-826.6" y2="-344.4"/><circle display="inline" fill="none" stroke="#000000" stroke-width="4" stroke-miterlimit="10" cx="-887.1" cy="-285.3" r="25"/><line display="inline" fill="none" stroke="#000000" stroke-width="4" stroke-linecap="round" stroke-linejoin="round" stroke-miterlimit="10" x1="-887.1" y1="-260.3" x2="-887.1" y2="-234.1"/><line display="inline" fill="none" stroke="#000000" stroke-width="4" stroke-linecap="round" stroke-linejoin="round" stroke-miterlimit="10" x1="-874" y1="-247.2" x2="-900.2" y2="-247.2"/><circle display="inline" fill="none" stroke="#000000" stroke-width="4" stroke-miterlimit="10" cx="-811" cy="-167.5" r="25"/><circle display="inline" fill="none" stroke="#000000" stroke-width="4" stroke-miterlimit="10" cx="-887.1" cy="-180.6" r="25"/><line display="inline" fill="none" stroke="#000000" stroke-width="4" stroke-linecap="round" stroke-linejoin="round" stroke-miterlimit="10" x1="-811" y1="-192.5" x2="-811" y2="-218.7"/><line display="inline" fill="none" stroke="#000000" stroke-width="4" stroke-linecap="round" stroke-linejoin="round" stroke-miterlimit="10" x1="-824.1" y1="-205.6" x2="-797.8" y2="-205.6"/><path display="inline" fill="none" stroke="#000000" stroke-width="4" stroke-miterlimit="10" d="M-809.4,1566.5   c2.3,3.8,3.7,8.3,3.7,13.1c0,13.8-11.2,25-25,25c-13.8,0-25-11.2-25-25c0-4.8,1.4-9.3,3.7-13.1"/><circle display="inline" fill="none" stroke="#000000" stroke-width="4" stroke-miterlimit="10" cx="-882.8" cy="1131" r="25"/><line display="inline" fill="none" stroke="#000000" stroke-width="4" stroke-linecap="round" stroke-linejoin="round" stroke-miterlimit="10" x1="-882.8" y1="1156" x2="-882.8" y2="1182.2"/><line display="inline" fill="none" stroke="#000000" stroke-width="4" stroke-linecap="round" stroke-linejoin="round" stroke-miterlimit="10" x1="-869.7" y1="1169.1" x2="-895.9" y2="1169.1"/><line display="inline" fill="none" stroke="#000000" stroke-width="4" stroke-linecap="round" stroke-linejoin="round" stroke-miterlimit="10" x1="-944.8" y1="1044.7" x2="-944.8" y2="1070.9"/><line display="inline" fill="none" stroke="#000000" stroke-width="4" stroke-linecap="round" stroke-linejoin="round" stroke-miterlimit="10" x1="-931.7" y1="1057.8" x2="-957.9" y2="1057.8"/><line display="inline" fill="none" stroke="#000000" stroke-width="4" stroke-linecap="round" stroke-linejoin="round" stroke-miterlimit="10" x1="-952.4" y1="686.7" x2="-952.4" y2="741.7"/><line display="inline" fill="none" stroke="#000000" stroke-width="4" stroke-linecap="round" stroke-linejoin="round" stroke-miterlimit="10" x1="-924.9" y1="714.2" x2="-979.9" y2="714.2"/><path display="inline" fill="none" stroke="#000000" stroke-width="4" stroke-linecap="round" stroke-linejoin="round" stroke-miterlimit="10" d="   M-964.3,603.3c0-13.8,11.2-25,25-25c13.8,0,25,11.2,25,25c0,13.8-11.2,25-25,25"/><line display="inline" fill="none" stroke="#000000" stroke-width="4" stroke-linecap="round" stroke-linejoin="round" stroke-miterlimit="10" x1="-939.3" y1="628.3" x2="-939.3" y2="654.5"/><line display="inline" fill="none" stroke="#000000" stroke-width="4" stroke-linecap="round" stroke-linejoin="round" stroke-miterlimit="10" x1="-926.2" y1="641.4" x2="-952.4" y2="641.4"/><circle display="inline" fill="none" stroke="#000000" stroke-width="4" stroke-miterlimit="10" cx="-887.1" cy="-450.3" r="25"/><circle display="inline" cx="-887.1" cy="-450.3" r="3"/><line display="inline" fill="none" stroke="#000000" stroke-width="4" stroke-linecap="round" stroke-linejoin="round" stroke-miterlimit="10" x1="-827.6" y1="1720.8" x2="-809.1" y2="1702.3"/><line display="inline" fill="none" stroke="#000000" stroke-width="4" stroke-linecap="round" stroke-linejoin="round" stroke-miterlimit="10" x1="-926.7" y1="890.6" x2="-944.8" y2="898.1"/><line display="inline" fill="none" stroke="#000000" stroke-width="4" stroke-linecap="round" stroke-linejoin="round" stroke-miterlimit="10" x1="-926.7" y1="905.6" x2="-944.8" y2="898.1"/><circle display="inline" fill="none" stroke="#000000" stroke-width="4" stroke-miterlimit="10" cx="-882.4" cy="314.7" r="25"/><circle display="inline" cx="-882.4" cy="314.7" r="3"/><line display="inline" fill="none" stroke="#000000" stroke-width="4" stroke-linecap="round" stroke-linejoin="round" stroke-miterlimit="10" x1="-882.4" y1="289.7" x2="-882.4" y2="263.5"/><line display="inline" fill="none" stroke="#000000" stroke-width="4" stroke-linecap="round" stroke-linejoin="round" stroke-miterlimit="10" x1="-873.1" y1="272.8" x2="-882.4" y2="263.5"/><line display="inline" fill="none" stroke="#000000" stroke-width="4" stroke-linecap="round" stroke-linejoin="round" stroke-miterlimit="10" x1="-891.7" y1="272.8" x2="-882.4" y2="263.5"/><line display="inline" fill="none" stroke="#000000" stroke-width="4" stroke-linecap="round" stroke-linejoin="round" stroke-miterlimit="10" x1="-872" y1="-13" x2="-853.4" y2="-31.6"/><line display="inline" fill="none" stroke="#000000" stroke-width="4" stroke-linecap="round" stroke-linejoin="round" stroke-miterlimit="10" x1="-853.4" y1="-18.5" x2="-853.4" y2="-31.6"/><line display="inline" fill="none" stroke="#000000" stroke-width="4" stroke-linecap="round" stroke-linejoin="round" stroke-miterlimit="10" x1="-866.6" y1="-31.6" x2="-853.4" y2="-31.6"/><line display="inline" fill="none" stroke="#000000" stroke-width="4" stroke-linecap="round" stroke-linejoin="round" stroke-miterlimit="10" x1="-789.4" y1="-10.3" x2="-789.4" y2="-23.4"/><line display="inline" fill="none" stroke="#000000" stroke-width="4" stroke-linecap="round" stroke-linejoin="round" stroke-miterlimit="10" x1="-802.5" y1="-23.4" x2="-789.4" y2="-23.4"/><path display="inline" fill="none" stroke="#000000" stroke-width="4" stroke-linecap="round" stroke-linejoin="round" stroke-miterlimit="10" d="   M-813.6-391.2c-4.4-11.8-23.7-12.1-25.9,4.2c-2.3,16.3,16.2,28.2,25.9,29.6"/><path display="inline" fill="none" stroke="#000000" stroke-width="4" stroke-linecap="round" stroke-linejoin="round" stroke-miterlimit="10" d="   M-813.5-300.2c4.4-11.8,23.7-12.1,25.9,4.2c2.3,16.3-16.2,28.2-25.9,29.6"/><line display="inline" fill="none" stroke="#000000" stroke-width="4" stroke-linecap="round" stroke-linejoin="round" stroke-miterlimit="10" x1="-813.5" y1="-266.5" x2="-813.5" y2="-240.2"/><line display="inline" fill="none" stroke="#000000" stroke-width="4" stroke-linecap="round" stroke-linejoin="round" stroke-miterlimit="10" x1="-800.4" y1="-253.4" x2="-826.6" y2="-253.4"/><path display="inline" fill="none" stroke="#000000" stroke-width="4" stroke-linecap="round" stroke-linejoin="round" stroke-miterlimit="10" d="   M-813.6-300.2c-4.4-11.8-23.7-12.1-25.9,4.2c-2.3,16.3,16.2,28.2,25.9,29.6"/><path display="inline" fill="none" stroke="#000000" stroke-width="4" stroke-linecap="round" stroke-linejoin="round" stroke-miterlimit="10" d="   M-831.8,19c-11.4,5.3-25.3-8.2-15.4-21.3c10-13.2,31.3-8.5,39.3-2.6"/><line display="inline" fill="none" stroke="#000000" stroke-width="4" stroke-linecap="round" stroke-linejoin="round" stroke-miterlimit="10" x1="-807.9" y1="-4.8" x2="-789.4" y2="-23.4"/><path display="inline" fill="none" stroke="#000000" stroke-width="4" stroke-linecap="round" stroke-linejoin="round" stroke-miterlimit="10" d="   M-831.7,19.1c-5.3,11.4,8.2,25.3,21.3,15.4c13.2-10,8.5-31.3,2.6-39.3"/><path display="inline" fill="none" stroke="#000000" stroke-width="4" stroke-linecap="round" stroke-linejoin="round" stroke-miterlimit="10" d="   M-899.7,485.2c12.1-2,23.9,6.4,23.9,19.4c0,12.9-11.8,21.4-23.9,19.4"/><line display="inline" fill="none" stroke="#000000" stroke-width="4" stroke-linecap="round" stroke-linejoin="round" stroke-miterlimit="10" x1="-900.2" y1="485.2" x2="-900.2" y2="548.9"/><line display="inline" fill="none" stroke="#000000" stroke-width="4" stroke-linecap="round" stroke-linejoin="round" stroke-miterlimit="10" x1="-874" y1="548.9" x2="-900.2" y2="548.9"/><path display="inline" fill="none" stroke="#000000" stroke-width="4" stroke-linecap="round" stroke-linejoin="round" stroke-miterlimit="10" d="   M-799.9,495.5c0,13.8-11.2,25-25,25s-25-11.2-25-25"/><line display="inline" fill="none" stroke="#000000" stroke-width="4" stroke-linecap="round" stroke-linejoin="round" stroke-miterlimit="10" x1="-824.9" y1="520.5" x2="-824.9" y2="546.7"/><line display="inline" fill="none" stroke="#000000" stroke-width="4" stroke-linecap="round" stroke-linejoin="round" stroke-miterlimit="10" x1="-811.8" y1="533.6" x2="-838.1" y2="533.6"/><circle display="inline" fill="none" stroke="#000000" stroke-width="4" stroke-linecap="round" stroke-linejoin="round" stroke-miterlimit="10" cx="-824.9" cy="495.5" r="12.5"/><circle display="inline" fill="none" stroke="#000000" stroke-width="4" stroke-miterlimit="10" cx="-944.8" cy="935" r="12.5"/><line display="inline" fill="none" stroke="#000000" stroke-width="4" stroke-linecap="round" stroke-linejoin="round" stroke-miterlimit="10" x1="-944.8" y1="873.8" x2="-944.8" y2="922.5"/><circle display="inline" fill="none" stroke="#000000" stroke-width="4" stroke-miterlimit="10" cx="-855.9" cy="1554.6" r="12.5"/><circle display="inline" fill="none" stroke="#000000" stroke-width="4" stroke-miterlimit="10" cx="-805.7" cy="1554.6" r="12.5"/><path display="inline" fill="none" stroke="#000000" stroke-width="4" stroke-miterlimit="10" d="M-862.4,1467.8   c-2.3-3.8-3.7-8.3-3.7-13.1c0-13.8,11.2-25,25-25s25,11.2,25,25c0,4.8-1.4,9.3-3.7,13.1"/><circle display="inline" fill="none" stroke="#000000" stroke-width="4" stroke-miterlimit="10" cx="-815.9" cy="1479.7" r="12.5"/><circle display="inline" fill="none" stroke="#000000" stroke-width="4" stroke-miterlimit="10" cx="-866.1" cy="1479.7" r="12.5"/><circle display="inline" fill="none" stroke="#000000" stroke-width="4" stroke-miterlimit="10" cx="-942" cy="828.8" r="12.5"/><line display="inline" fill="none" stroke="#000000" stroke-width="4" stroke-linecap="round" stroke-linejoin="round" stroke-miterlimit="10" x1="-898.8" y1="785.6" x2="-933.2" y2="820"/><line display="inline" fill="none" stroke="#000000" stroke-width="4" stroke-linecap="round" stroke-linejoin="round" stroke-miterlimit="10" x1="-919.7" y1="772.6" x2="-950.9" y2="820"/><line display="inline" fill="none" stroke="#000000" stroke-width="4" stroke-linecap="round" stroke-linejoin="round" stroke-miterlimit="10" x1="-859" y1="82" x2="-859" y2="130.6"/><line display="inline" fill="none" stroke="#000000" stroke-width="4" stroke-linecap="round" stroke-linejoin="round" stroke-miterlimit="10" x1="-845.2" y1="111.4" x2="-893.9" y2="111.4"/><circle display="inline" fill="none" stroke="#000000" stroke-width="4" stroke-miterlimit="10" cx="-812.4" cy="321.1" r="25"/><path display="inline" fill="none" stroke="#000000" stroke-width="4" stroke-linecap="round" stroke-linejoin="round" stroke-miterlimit="10" d="   M-836,261.9c6.1,2.7,10.4,8.9,10.4,16c0,7.1-4.3,13.3-10.4,16"/><line display="inline" fill="none" stroke="#000000" stroke-width="4" stroke-linecap="round" stroke-linejoin="round" stroke-miterlimit="10" x1="-812.4" y1="264.9" x2="-812.4" y2="296.1"/><line display="inline" fill="none" stroke="#000000" stroke-width="4" stroke-linecap="round" stroke-linejoin="round" stroke-miterlimit="10" x1="-799.3" y1="278" x2="-825.6" y2="278"/><path display="inline" fill="none" stroke="#000000" stroke-width="4" stroke-linecap="round" stroke-linejoin="round" stroke-miterlimit="10" d="   M-788.9,261.9c-6.1,2.7-10.4,8.9-10.4,16c0,7.1,4.3,13.3,10.4,16"/><circle display="inline" fill="none" stroke="#000000" stroke-width="4" stroke-miterlimit="10" cx="-743.3" cy="327.2" r="12.5"/><line display="inline" fill="none" stroke="#000000" stroke-width="4" stroke-linecap="round" stroke-linejoin="round" stroke-miterlimit="10" x1="-743.3" y1="266.1" x2="-743.3" y2="314.7"/><line display="inline" fill="none" stroke="#000000" stroke-width="4" stroke-linecap="round" stroke-linejoin="round" stroke-miterlimit="10" x1="-730.2" y1="290.1" x2="-756.4" y2="290.1"/><polyline display="inline" fill="none" stroke="#000000" stroke-width="4" stroke-linecap="round" stroke-linejoin="round" stroke-miterlimit="10" points="   -766.9,273.7 -756.4,273.7 -756.4,306.5 -766.9,306.5  "/><polyline display="inline" fill="none" stroke="#000000" stroke-width="4" stroke-linecap="round" stroke-linejoin="round" stroke-miterlimit="10" points="   -719.8,273.7 -730.2,273.7 -730.2,306.5 -719.8,306.5  "/><text transform="matrix(1 0 0 1 -1092.2158 -439.4795)" display="inline" font-family="'MyriadPro-Regular'" font-size="47px">sun</text><text transform="matrix(1 0 0 1 -1090.7159 -370.5005)" display="inline" font-family="'MyriadPro-Regular'" font-size="47px">mercury</text><text transform="matrix(1 0 0 1 -1092.2158 -270.3379)" display="inline" font-family="'MyriadPro-Regular'" font-size="47px">venus</text><text transform="matrix(1 0 0 1 -1093.7158 -170.1752)" display="inline" font-family="'MyriadPro-Regular'" font-size="47px">earth</text><text transform="matrix(1 0 0 1 -1095.2157 -70.0125)" display="inline" font-family="'MyriadPro-Regular'" font-size="47px">moon</text><text transform="matrix(1 0 0 1 -1096.7156 30.1501)" display="inline" font-family="'MyriadPro-Regular'" font-size="47px">mars</text><text transform="matrix(1 0 0 1 -1098.2156 130.3128)" display="inline" font-family="'MyriadPro-Regular'" font-size="47px">jupiter</text><text transform="matrix(1 0 0 1 -1099.7155 230.4755)" display="inline" font-family="'MyriadPro-Regular'" font-size="47px">saturn</text><text transform="matrix(1 0 0 1 -1101.2153 330.6381)" display="inline" font-family="'MyriadPro-Regular'" font-size="47px">uranus</text><text transform="matrix(1 0 0 1 -1102.7153 430.8008)" display="inline" font-family="'MyriadPro-Regular'" font-size="47px">neptune</text><text transform="matrix(1 0 0 1 -1104.2152 530.9634)" display="inline" font-family="'MyriadPro-Regular'" font-size="47px">pluto</text><text transform="matrix(1 0 0 1 -1105.7152 631.1261)" display="inline" font-family="'MyriadPro-Regular'" font-size="47px">ceres</text><text transform="matrix(1 0 0 1 -1107.2151 731.2888)" display="inline" font-family="'MyriadPro-Regular'" font-size="47px">star</text><text transform="matrix(1 0 0 1 -1108.715 831.4515)" display="inline" font-family="'MyriadPro-Regular'" font-size="47px">comet</text><text transform="matrix(1 0 0 1 -1110.215 931.6143)" display="inline" font-family="'MyriadPro-Regular'" font-size="47px">chiron</text><text transform="matrix(1 0 0 1 -1111.7148 1031.777)" display="inline" font-family="'MyriadPro-Regular'" font-size="47px">pallas</text><text transform="matrix(1 0 0 1 -1110.8014 1172.6893)" display="inline" font-family="'MyriadPro-Regular'" font-size="47px">juno</text><text transform="matrix(1 0 0 1 -1117.5511 1473.1776)" display="inline" font-family="'MyriadPro-Regular'" font-size="47px">north node</text><text transform="matrix(1 0 0 1 -1119.0511 1573.3403)" display="inline" font-family="'MyriadPro-Regular'" font-size="47px">south node</text><text transform="matrix(1 0 0 1 -1098.8857 1282.3112)" display="inline" font-family="'MyriadPro-Regular'" font-size="47px">hebe</text><text transform="matrix(1 0 0 1 -1118.301 1763.4985)" display="inline" font-family="'MyriadPro-Regular'" font-size="47px">conjuction</text><text transform="matrix(1 0 0 1 -1118.301 1853.4941)" display="inline" font-family="'MyriadPro-Regular'" font-size="47px">opposition</text><line display="inline" fill="none" stroke="#000000" stroke-width="4" stroke-linecap="round" stroke-linejoin="round" stroke-miterlimit="10" x1="-933" y1="694.8" x2="-971.9" y2="733.7"/><line display="inline" fill="none" stroke="#000000" stroke-width="4" stroke-linecap="round" stroke-linejoin="round" stroke-miterlimit="10" x1="-933" y1="733.7" x2="-971.9" y2="694.8"/><line display="inline" fill="none" stroke="#000000" stroke-width="4" stroke-linecap="round" stroke-linejoin="round" stroke-miterlimit="10" x1="-971.9" y1="1099.4" x2="-971.9" y2="1154.4"/><line display="inline" fill="none" stroke="#000000" stroke-width="4" stroke-linecap="round" stroke-linejoin="round" stroke-miterlimit="10" x1="-944.4" y1="1126.9" x2="-999.4" y2="1126.9"/><line display="inline" fill="none" stroke="#000000" stroke-width="4" stroke-linecap="round" stroke-linejoin="round" stroke-miterlimit="10" x1="-952.4" y1="1107.4" x2="-991.3" y2="1146.3"/><line display="inline" fill="none" stroke="#000000" stroke-width="4" stroke-linecap="round" stroke-linejoin="round" stroke-miterlimit="10" x1="-952.4" y1="1146.3" x2="-991.3" y2="1107.4"/><line display="inline" fill="none" stroke="#000000" stroke-width="4" stroke-linecap="round" stroke-linejoin="round" stroke-miterlimit="10" x1="-863.3" y1="1086.6" x2="-882.8" y2="1106"/><line display="inline" fill="none" stroke="#000000" stroke-width="4" stroke-linecap="round" stroke-linejoin="round" stroke-miterlimit="10" x1="-882.8" y1="1106" x2="-902.2" y2="1086.6"/><line display="inline" fill="none" stroke="#000000" stroke-width="4" stroke-linecap="round" stroke-linejoin="round" stroke-miterlimit="10" x1="-885.8" y1="806.5" x2="-933.2" y2="837.7"/><circle display="inline" fill="none" stroke="#000000" stroke-width="4" stroke-miterlimit="10" cx="-849.7" cy="828.9" r="12.5"/><line display="inline" fill="none" stroke="#000000" stroke-width="4" stroke-linecap="round" stroke-linejoin="round" stroke-miterlimit="10" x1="-827.4" y1="772.6" x2="-858.6" y2="820.1"/><line display="inline" fill="none" stroke="#000000" stroke-width="4" stroke-linecap="round" stroke-linejoin="round" stroke-miterlimit="10" x1="-793.5" y1="806.6" x2="-840.9" y2="837.7"/><g display="inline"><line fill="none" stroke="#000000" stroke-width="4" stroke-linecap="round" stroke-linejoin="round" stroke-miterlimit="10" x1="-813.1" y1="779.9" x2="-844.7" y2="816.5"/><line fill="none" stroke="#000000" stroke-width="4" stroke-linecap="round" stroke-linejoin="round" stroke-miterlimit="10" x1="-800.7" y1="792.2" x2="-837.4" y2="823.8"/></g><line display="inline" fill="none" stroke="#000000" stroke-width="4" stroke-linecap="round" stroke-linejoin="round" stroke-miterlimit="10" x1="-868.6" y1="392.5" x2="-877.8" y2="383.3"/><line display="inline" fill="none" stroke="#000000" stroke-width="4" stroke-linecap="round" stroke-linejoin="round" stroke-miterlimit="10" x1="-887.1" y1="392.5" x2="-877.8" y2="383.3"/><path display="inline" d="M419.3,842.8c0-0.1,0-0.1-0.1-0.2c0-0.1,0-0.1-0.1-0.2c0-0.1-0.1-0.1-0.1-0.2   c0-0.1-0.1-0.1-0.1-0.2c-0.1-0.2-0.3-0.4-0.6-0.6c0,0-0.1-0.1-0.1-0.1c-0.1,0-0.1-0.1-0.2-0.1c-0.1,0-0.1,0-0.2-0.1   c-0.1,0-0.1,0-0.2-0.1c-0.1,0-0.3,0-0.4,0h-38.4c-1.1,0-2,0.9-2,2s0.9,2,2,2h33.6L354.8,903l-16.5-16.5c-0.8-0.8-2-0.8-2.8,0   c-0.8,0.8-0.8,2,0,2.8l16.5,16.5l-31,31c-0.8,0.8-0.8,2,0,2.8c0.4,0.4,0.9,0.6,1.4,0.6s1-0.2,1.4-0.6l31-31l16.5,16.5   c0.4,0.4,0.9,0.6,1.4,0.6s1-0.2,1.4-0.6c0.8-0.8,0.8-2,0-2.8l-16.5-16.5l57.8-57.8v33.6c0,1.1,0.9,2,2,2s2-0.9,2-2v-38.4   C419.4,843.1,419.3,842.9,419.3,842.8z"/><line display="inline" fill="none" stroke="#000000" stroke-width="4" stroke-linecap="round" stroke-linejoin="round" stroke-miterlimit="10" x1="-844.7" y1="399.6" x2="-856.6" y2="394"/><line display="inline" fill="none" stroke="#000000" stroke-width="4" stroke-linecap="round" stroke-linejoin="round" stroke-miterlimit="10" x1="-862.2" y1="405.8" x2="-856.6" y2="394"/><line display="inline" fill="none" stroke="#000000" stroke-width="4" stroke-linecap="round" stroke-linejoin="round" stroke-miterlimit="10" x1="-910.8" y1="399.6" x2="-898.9" y2="394"/><line display="inline" fill="none" stroke="#000000" stroke-width="4" stroke-linecap="round" stroke-linejoin="round" stroke-miterlimit="10" x1="-893.3" y1="405.8" x2="-898.9" y2="394"/><rect x="-969.8" y="984.4" transform="matrix(-0.7071 0.7071 -0.7071 -0.7071 -899.1992 2391.1892)" display="inline" fill="none" stroke="#000000" stroke-width="4" stroke-linecap="round" stroke-linejoin="round" stroke-miterlimit="10" width="50" height="50"/><line display="inline" fill="none" stroke="#000000" stroke-width="4" stroke-linecap="round" stroke-linejoin="round" stroke-miterlimit="10" x1="-875.6" y1="1079.5" x2="-882.8" y2="1106"/><line display="inline" fill="none" stroke="#000000" stroke-width="4" stroke-linecap="round" stroke-linejoin="round" stroke-miterlimit="10" x1="-889.9" y1="1079.5" x2="-882.8" y2="1106"/><polygon display="inline" fill="none" stroke="#000000" stroke-width="4" stroke-linecap="round" stroke-linejoin="round" stroke-miterlimit="10" points="   -883.8,1227.1 -908.8,1284.2 -933.8,1227.1  "/><circle display="inline" fill="none" stroke="#000000" stroke-width="4" stroke-miterlimit="10" cx="-865.1" cy="1880.5" r="25"/><line display="inline" fill="none" stroke="#000000" stroke-width="4" stroke-linecap="round" stroke-linejoin="round" stroke-miterlimit="10" x1="-847.4" y1="1862.8" x2="-828.8" y2="1844.3"/><circle display="inline" fill="none" stroke="#000000" stroke-width="4" stroke-miterlimit="10" cx="-811" cy="1826.5" r="25"/><path display="inline" d="M409.4,110.5c-8-3.1-16.3-5.4-24.7-6.8V26c8.4-1.4,16.7-3.6,24.7-6.8   c1-0.4,1.5-1.6,1.1-2.6c-0.4-1-1.6-1.5-2.6-1.1c-13.8,5.4-28.3,8.1-43.2,8.1c-14.9,0-29.4-2.7-43.2-8.1c-1-0.4-2.2,0.1-2.6,1.1   s0.1,2.2,1.1,2.6c8,3.1,16.3,5.4,24.7,6.8v77.7c-8.4,1.4-16.7,3.6-24.7,6.8c-1,0.4-1.5,1.6-1.1,2.6c0.3,0.8,1.1,1.3,1.9,1.3   c0.2,0,0.5,0,0.7-0.1c13.8-5.4,28.3-8.1,43.2-8.1c14.9,0,29.4,2.7,43.2,8.1c1,0.4,2.2-0.1,2.6-1.1   C410.9,112.1,410.4,110.9,409.4,110.5z M348.8,103.1V26.6c5.3,0.7,10.6,1,15.9,1c5.4,0,10.7-0.4,15.9-1v76.6   c-5.3-0.7-10.6-1-15.9-1C359.4,102.1,354.1,102.5,348.8,103.1z"/><path display="inline" d="M394.1,1307.5c-15.1-11.8-23.7-27.4-24.3-43.9h23.1c1.1,0,2-0.9,2-2s-0.9-2-2-2h-23.1   c0.6-16.6,9.2-32.1,24.3-43.9c0.9-0.7,1-1.9,0.3-2.8c-0.7-0.9-1.9-1-2.8-0.3c-16.1,12.6-25.2,29.3-25.8,47.1h-14.6   c-0.6-17.8-9.7-34.5-25.8-47.1c-0.9-0.7-2.1-0.5-2.8,0.3c-0.7,0.9-0.5,2.1,0.3,2.8c15.1,11.8,23.7,27.4,24.3,43.9h-23.1   c-1.1,0-2,0.9-2,2s0.9,2,2,2h23.1c-0.6,16.6-9.2,32.1-24.3,43.9c-0.9,0.7-1,1.9-0.3,2.8c0.4,0.5,1,0.8,1.6,0.8   c0.4,0,0.9-0.1,1.2-0.4c16.1-12.6,25.2-29.3,25.8-47.1h14.6c0.6,17.8,9.7,34.5,25.8,47.1c0.4,0.3,0.8,0.4,1.2,0.4   c0.6,0,1.2-0.3,1.6-0.8C395.1,1309.5,394.9,1308.2,394.1,1307.5z"/><path display="inline" d="M409.3-268.2c-12.7,0-23.6,8-27.9,19.2c-4.3-11.2-15.2-19.2-27.9-19.2   c-16.5,0-29.9,13.4-29.9,29.9c0,8,3.1,15.5,8.8,21.1c0.4,0.4,0.9,0.6,1.4,0.6s1-0.2,1.4-0.6c0.8-0.8,0.8-2,0-2.8   c-4.9-4.9-7.6-11.4-7.6-18.3c0-14.3,11.6-25.9,25.9-25.9s25.9,11.6,25.9,25.9v67.1c0,1.1,0.9,2,2,2s2-0.9,2-2v-67.1   c0-14.3,11.6-25.9,25.9-25.9c14.3,0,25.9,11.6,25.9,25.9c0,6.9-2.7,13.4-7.6,18.3c-0.8,0.8-0.8,2,0,2.8c0.4,0.4,0.9,0.6,1.4,0.6   s1-0.2,1.4-0.6c5.6-5.6,8.8-13.2,8.8-21.1C439.2-254.8,425.8-268.2,409.3-268.2z"/><g display="inline"><path d="M435,657.3h-95c-1.1,0-2,0.9-2,2s0.9,2,2,2h95c1.1,0,2-0.9,2-2S436.1,657.3,435,657.3z"/><path d="M340,642.2h27.2c0,0,0,0,0,0c0,0,0,0,0,0c0.1,0,0.3,0,0.4,0c0,0,0.1,0,0.1,0c0.1,0,0.2,0,0.2-0.1    c0,0,0.1,0,0.1-0.1c0.1,0,0.1-0.1,0.2-0.1c0,0,0.1-0.1,0.1-0.1c0,0,0.1,0,0.1-0.1c0,0,0,0,0.1-0.1c0,0,0.1-0.1,0.1-0.1    c0-0.1,0.1-0.1,0.1-0.2c0,0,0.1-0.1,0.1-0.1c0-0.1,0.1-0.1,0.1-0.2c0-0.1,0-0.1,0.1-0.2c0-0.1,0-0.1,0.1-0.2c0-0.1,0-0.1,0-0.2    c0-0.1,0-0.2,0-0.2c0,0,0,0,0-0.1c0,0,0-0.1,0-0.1c0-0.1,0-0.2,0-0.2c0-0.1,0-0.1,0-0.2c0-0.1,0-0.1-0.1-0.2c0-0.1,0-0.1-0.1-0.2    c0-0.1-0.1-0.1-0.1-0.2c0-0.1-0.1-0.1-0.1-0.2c0,0,0-0.1-0.1-0.1c-3.8-4.4-5.8-10.1-5.8-15.9c0-13.6,11-24.6,24.6-24.6    s24.6,11,24.6,24.6c0,5.8-2.1,11.5-5.8,15.9c0,0,0,0.1-0.1,0.1c0,0-0.1,0.1-0.1,0.2c0,0.1-0.1,0.1-0.1,0.2c0,0.1,0,0.1-0.1,0.2    c0,0.1,0,0.1-0.1,0.2c0,0.1,0,0.1,0,0.2c0,0.1,0,0.1,0,0.2c0,0,0,0.1,0,0.1c0,0,0,0.1,0,0.1c0,0.1,0,0.1,0,0.2c0,0.1,0,0.1,0,0.2    c0,0.1,0,0.1,0.1,0.2c0,0.1,0,0.1,0.1,0.2c0,0.1,0.1,0.1,0.1,0.2c0,0.1,0.1,0.1,0.1,0.2c0,0,0.1,0.1,0.1,0.1    c0.1,0.1,0.1,0.1,0.2,0.2c0,0,0,0,0,0c0,0,0,0,0.1,0c0.1,0.1,0.1,0.1,0.2,0.1c0,0,0.1,0,0.1,0.1c0.1,0,0.1,0.1,0.2,0.1    c0,0,0.1,0,0.1,0c0.1,0,0.2,0,0.2,0c0.1,0,0.1,0,0.2,0c0,0,0.1,0,0.1,0h26.2c1.1,0,2-0.9,2-2s-0.9-2-2-2h-22.3    c2.8-4.5,4.4-9.8,4.4-15.2c0-15.8-12.8-28.6-28.6-28.6s-28.6,12.8-28.6,28.6c0,5.4,1.6,10.7,4.4,15.2H340c-1.1,0-2,0.9-2,2    S338.9,642.2,340,642.2z"/></g><g display="inline"><path d="M359.5,204c0-11.6-9.5-21.1-21.1-21.1c-5.6,0-10.7,2.2-14.4,5.7c6.3-17.5,23.1-30,42.7-30    c12.1,0,23.5,4.7,32.1,13.3c0.8,0.8,2,0.8,2.8,0c0.8-0.8,0.8-2,0-2.8c-9.3-9.3-21.7-14.5-34.9-14.5c-27.2,0-49.4,22.1-49.4,49.4    c0,11.6,9.5,21.1,21.1,21.1S359.5,215.7,359.5,204z M321.3,204c0-9.4,7.7-17.1,17.1-17.1s17.1,7.7,17.1,17.1    c0,9.4-7.7,17.1-17.1,17.1S321.3,213.5,321.3,204z"/><path d="M391.2,183.2c-11.6,0-21.1,9.5-21.1,21.1c0,11.6,9.5,21.1,21.1,21.1c5.6,0,10.7-2.2,14.4-5.7    c-6.3,17.5-23.1,30-42.7,30c-12.1,0-23.5-4.7-32.1-13.3c-0.8-0.8-2-0.8-2.8,0c-0.8,0.8-0.8,2,0,2.8c9.3,9.3,21.7,14.5,34.9,14.5    c27.2,0,49.4-22.1,49.4-49.4C412.3,192.6,402.8,183.2,391.2,183.2z M391.2,221.4c-9.4,0-17.1-7.7-17.1-17.1    c0-9.4,7.7-17.1,17.1-17.1c9.4,0,17.1,7.7,17.1,17.1C408.3,213.7,400.6,221.4,391.2,221.4z"/></g><g display="inline"><path d="M311,1142.6c0.5,0,1-0.2,1.4-0.6l18.1-18.1l14.4,14.4c0.8,0.8,2,0.8,2.8,0l14.4-14.4l14.4,14.4    c0.4,0.4,0.9,0.6,1.4,0.6s1-0.2,1.4-0.6c0,0,0,0,0,0l14.4-14.4l10.7,10.7c0.8,0.8,2,0.8,2.8,0s0.8-2,0-2.8l-12.1-12.1    c-0.8-0.8-2-0.8-2.8,0l-14.4,14.4l-14.4-14.4c-0.8-0.8-2-0.8-2.8,0l-14.4,14.4l-14.4-14.4c-0.8-0.8-2-0.8-2.8,0l-19.5,19.5    c-0.8,0.8-0.8,2,0,2.8C309.9,1142.4,310.4,1142.6,311,1142.6z"/><path d="M395.2,1148.6c-0.4-0.4-0.9-0.6-1.4-0.6s-1,0.2-1.4,0.6L378,1163l-14.4-14.4c-0.8-0.8-2.1-0.8-2.8,0    l-14.4,14.4l-14.4-14.4c-0.8-0.8-2-0.8-2.8,0l-19.5,19.5c-0.8,0.8-0.8,2,0,2.8c0.4,0.4,0.9,0.6,1.4,0.6s1-0.2,1.4-0.6l18.1-18.1    l14.4,14.4c0.8,0.8,2,0.8,2.8,0l14.4-14.4l14.4,14.4c0.4,0.4,0.9,0.6,1.4,0.6s1-0.2,1.4-0.6c0,0,0,0,0,0l14.4-14.4l10.7,10.7    c0.8,0.8,2,0.8,2.8,0s0.8-2,0-2.8L395.2,1148.6z"/></g><path display="inline" d="M413-102.9c-10.6-3.9-20-0.4-25.2,9.5c-4,7.6-9.9,15.4-23,15.4s-18.9-7.8-23-15.4   c-5.2-9.8-14.7-13.4-25.2-9.5c-1,0.4-1.6,1.5-1.2,2.6c0.4,1,1.5,1.6,2.6,1.2c12.3-4.5,18.3,3.8,20.3,7.6c3.2,6,7.8,12.6,15.9,15.7   c-9.5,4.1-16.2,13.6-16.2,24.5c0,14.7,12,26.7,26.7,26.7s26.7-12,26.7-26.7c0-11-6.7-20.4-16.2-24.5c8.2-3.1,12.8-9.7,15.9-15.7   c2-3.8,8-12.1,20.3-7.6c1,0.4,2.2-0.1,2.6-1.2C414.5-101.4,414-102.6,413-102.9z M387.5-51.3c0,12.5-10.2,22.7-22.7,22.7   s-22.7-10.2-22.7-22.7s10.2-22.7,22.7-22.7S387.5-63.9,387.5-51.3z"/><path display="inline" d="M407.4,1028.5c-1.6-4.8-5.9-7.9-12.2-8.8c-11.3-1.5-20.8,2.8-29.4,8   c-1.7-5.6-2.9-11.9-4-17.8c-3.2-16.5-6.2-32-18.1-31.3c-4.9,0.3-8.9,2.3-12,6c-5.3,6.3-6.8,16.2-7.1,23.3   c-2.9-6.5-4.6-12.7-6.1-17.9c-1.9-6.8-3.3-11.7-6.5-13.5c-1-0.6-2.2-0.2-2.7,0.7c-0.6,1-0.2,2.2,0.7,2.7c1.8,1.1,3.1,5.8,4.6,11.2   c2,7,4.7,16.6,10.4,26.4c0.5,0.8,1.4,1.2,2.3,0.9c0.9-0.3,1.5-1.2,1.4-2.1c0-0.2-1.9-19.9,6-29.1c2.4-2.8,5.4-4.3,9.2-4.6   c7.8-0.5,10.6,10.8,13.9,28c1.2,6.4,2.5,13.1,4.4,19.2c-1,0.7-2.1,1.3-3.1,2c-6.8,4.4-13.3,8.6-19.7,9.6   c-15.3,2.5-22.2-10.5-22.4-11c-0.5-1-1.7-1.4-2.7-0.9c-1,0.5-1.4,1.7-0.9,2.7c0.1,0.2,8.4,16.1,26.7,13.2   c7.3-1.2,14.1-5.6,21.3-10.2c0.7-0.5,1.5-1,2.2-1.5c3,7.9,7.2,14.3,14.1,16.9c2.9,1.1,5.8,1.6,8.6,1.6c5.7,0,11.1-2.1,15.3-6.2   C406.8,1041.1,409.1,1034,407.4,1028.5z M398.8,1043.2c-2.5,2.4-9.4,7.5-19.8,3.7c-5.8-2.1-9.4-8-12-15.3   c8.4-5.1,17.2-9.3,27.6-7.9c4.8,0.7,7.9,2.8,8.9,6.1C404.9,1033.8,403,1039.3,398.8,1043.2z"/><path display="inline" d="M427.6,792.3l-9.8-2.5c-1.1-0.3-2.2,0.4-2.4,1.4s0.4,2.2,1.4,2.4l5.2,1.3   c-1.7,0.9-3.6,1.4-5.6,1.4c-6.8,0-12.3-5.5-12.3-12.3v-61.7c0-0.1,0-0.1,0-0.2c-0.2-8.4-7.1-15.2-15.5-15.2c-5.9,0-11,3.3-13.6,8.1   c-2.6-4.8-7.8-8.1-13.6-8.1c-5.8,0-10.9,3.2-13.5,7.9c-2.7-4.7-7.7-7.9-13.5-7.9c-1.1,0-2,0.9-2,2s0.9,2,2,2   c6.4,0,11.5,5.2,11.5,11.5v61.5c0,1.1,0.9,2,2,2s2-0.9,2-2v-61.5c0-6.4,5.2-11.5,11.5-11.5s11.5,5.2,11.5,11.5v61.5   c0,1.1,0.9,2,2,2s2-0.9,2-2v-60.6c0.1-0.3,0.2-0.6,0.2-0.9c0-6.4,5.2-11.5,11.5-11.5c6.4,0,11.5,5.2,11.5,11.5v61.5   c0,9,7.3,16.3,16.3,16.3c2.6,0,5.2-0.6,7.5-1.8l-1.3,5c-0.3,1.1,0.4,2.2,1.4,2.4c0.2,0,0.3,0.1,0.5,0.1c0.9,0,1.7-0.6,1.9-1.5   l2.5-9.8C429.3,793.7,428.7,792.6,427.6,792.3z"/><path display="inline" d="M425.6,521.5c-0.8-0.8-2-0.8-2.8,0c-2.2,2.2-5,3.4-8.1,3.4c-2.1,0-4.1-0.6-5.8-1.6   c13.6-14.1,16.8-29.6,14.7-38.5c-1.4-5.8-4.8-9.2-9.3-9.2c0,0,0,0,0,0c-5,0-8.6,2.1-11.1,4.6v-25c0-0.1,0-0.1,0-0.2   c-0.2-8-6.7-14.4-14.8-14.4c-5.5,0-10.3,3.1-12.9,7.6c-2.5-4.5-7.4-7.6-12.9-7.6c-5.5,0-10.2,3-12.8,7.4c-2.6-4.4-7.3-7.4-12.8-7.4   c-1.1,0-2,0.9-2,2s0.9,2,2,2c5.9,0,10.8,4.8,10.8,10.8v58.1c0,1.1,0.9,2,2,2s2-0.9,2-2v-58.1c0-5.9,4.8-10.8,10.8-10.8   c5.9,0,10.8,4.8,10.8,10.8v58.1c0,1.1,0.9,2,2,2s2-0.9,2-2v-57.2c0.1-0.3,0.2-0.6,0.2-0.9c0-5.9,4.8-10.8,10.8-10.8   c5.9,0,10.8,4.8,10.8,10.8v58.1c0,3.9,1.4,7.4,3.8,10.1c-4.9,4.4-10.9,8.6-18.4,12.3c-1,0.5-1.4,1.7-0.9,2.7   c0.3,0.7,1.1,1.1,1.8,1.1c0.3,0,0.6-0.1,0.9-0.2c7.9-3.9,14.4-8.4,19.5-13.2c2.5,1.7,5.5,2.7,8.7,2.7c4.1,0,8-1.6,10.9-4.5   C426.4,523.6,426.4,522.3,425.6,521.5z M414.3,479.6C414.3,479.6,414.3,479.6,414.3,479.6c3.6,0,5,4.3,5.4,6.1   c1.9,8-1.2,22.1-13.9,35c-1.7-2-2.7-4.5-2.7-7.3v-25.7C403.7,486.3,406.2,479.6,414.3,479.6z"/><path display="inline" d="M423,373.2c-0.8-0.8-2-0.8-2.8,0c-2.1,2.1-5.1,3-8.2,2.5c-3.6-0.7-6.4-3.5-7.1-7.1   c-0.5-2.9,0.3-5.7,2.2-7.8c0.2-0.1,0.3-0.2,0.5-0.4c7.8-7.8,11.8-18.7,11-29.8c-1.5-18.6-16.6-33.5-35.2-34.7   c-10.6-0.7-20.6,2.9-28.3,10.2c-7.6,7.1-11.9,17.2-11.9,27.6c0,6.8,1.8,13.3,5.1,19c-1.5-0.4-3-0.6-4.6-0.6c-10.5,0-19,8.5-19,19   c0,10.5,8.5,19,19,19s19-8.5,19-19c0-4.9-1.9-9.4-4.9-12.7c-0.1-0.2-0.2-0.3-0.3-0.4c-6.6-6.4-10.2-15-10.2-24.2   c0-9.4,3.8-18.2,10.7-24.7c6.9-6.5,15.9-9.7,25.4-9.1c16.6,1.1,30.2,14.4,31.5,31c0.8,9.7-2.6,19.3-9.4,26.2   c-0.2,0.1-0.3,0.2-0.5,0.3c-3.1,3-4.5,7.5-3.7,11.8c1,5.2,5.1,9.3,10.3,10.3c0.8,0.2,1.7,0.2,2.5,0.2c3.5,0,6.8-1.3,9.2-3.8   C423.7,375.3,423.7,374,423,373.2z M343.5,386c-8.2,0-15-6.7-15-15c0-8.2,6.7-15,15-15s15,6.7,15,15   C358.5,379.3,351.7,386,343.5,386z"/><g display="inline"><path d="M264.4,968.4C264.4,968.4,264.5,968.4,264.4,968.4c0.2,0,0.3,0,0.4-0.1c0.3-0.1,0.5-0.4,0.5-0.8    c0-0.5-0.4-0.8-0.8-0.8s-0.8,0.4-0.8,0.8C263.6,968,264,968.3,264.4,968.4z"/><path d="M266.5,980.1C266.5,980.1,266.4,980.1,266.5,980.1c-0.2,0-0.3,0-0.4,0.1c-0.3,0.1-0.5,0.4-0.5,0.8    c0,0.1,0,0.3,0.1,0.4c0.1,0.1,0.1,0.2,0.2,0.3c0.1,0.1,0.2,0.1,0.3,0.1c0.1,0,0.1,0,0.2,0c0.1,0,0.1,0,0.2,0    c0.4-0.1,0.7-0.4,0.7-0.8C267.3,980.5,266.9,980.1,266.5,980.1z"/><path d="M220.5,1021.5C220.5,1021.5,220.5,1021.5,220.5,1021.5c0-0.2-0.1-0.3-0.2-0.3c0,0-0.1,0-0.2,0    c-0.2,0-0.4,0.2-0.4,0.4c0,0,0,0,0,0c0,0.1,0.1,0.2,0.2,0.3c0,0,0,0,0,0c0.1,0,0.1,0.1,0.2,0.1c0.1,0,0.1,0,0.1,0c0,0,0,0,0,0    C220.4,1021.8,220.5,1021.7,220.5,1021.5C220.5,1021.6,220.5,1021.6,220.5,1021.5z"/><path d="M262.6,1059.6c0,0-0.1,0-0.1,0c-0.1,0-0.2,0.1-0.3,0.3c0,0,0,0.1,0,0.1c0,0.2,0.2,0.4,0.4,0.4    c0.2,0,0.4-0.2,0.4-0.4S262.8,1059.6,262.6,1059.6z"/><path d="M264.7,1047.7c-0.1,0-0.1-0.1-0.2-0.1c-0.1,0-0.1,0-0.2,0c-0.1,0.1-0.2,0.2-0.2,0.3    c0,0.2,0.2,0.4,0.4,0.4s0.4-0.2,0.4-0.4C264.8,1047.9,264.8,1047.8,264.7,1047.7z"/><path d="M219.8,1021.9c-0.1-0.1-0.2-0.2-0.2-0.3l-19.1,8.9c0.1,0.1,0.1,0.2,0.2,0.3L219.8,1021.9z"/><path d="M179.7,1042.1c0.1,0.1,0.2,0.2,0.2,0.3l19.9-11.1c-0.1-0.1-0.2-0.2-0.2-0.3L179.7,1042.1z"/><path d="M178.7,1042.4l-7.9,1.9c0,0.1,0.1,0.2,0.1,0.4l7.9-1.9C178.8,1042.7,178.7,1042.6,178.7,1042.4    C178.7,1042.4,178.7,1042.4,178.7,1042.4z"/><path d="M220.7,1021.7c0,0.1-0.1,0.2-0.2,0.3l41.7,37.7c0-0.1,0.1-0.2,0.3-0.3L220.7,1021.7z"/><path d="M170.7,1044.4c-0.2-0.5-0.7-0.8-1.2-0.8c-0.7,0-1.3,0.6-1.3,1.3s0.6,1.3,1.3,1.3c0.7,0,1.3-0.6,1.3-1.3    c0,0,0-0.1,0-0.1C170.7,1044.6,170.7,1044.5,170.7,1044.4z"/><path d="M179.5,1042.2c-0.1,0-0.1-0.1-0.2-0.1c-0.2,0-0.3,0.1-0.4,0.3c0,0,0,0.1,0,0.1c0,0.1,0,0.2,0.1,0.3    c0.1,0.1,0.2,0.1,0.3,0.1c0.2,0,0.4-0.2,0.4-0.4c0,0,0,0,0,0C179.7,1042.3,179.6,1042.2,179.5,1042.2z"/><path d="M266.2,981.9l-1.9,65.6c0.1,0,0.1,0,0.2,0c0.1,0,0.1,0,0.2,0l1.9-65.6c-0.1,0-0.1,0-0.2,0    C266.3,981.9,266.3,981.9,266.2,981.9z"/><path d="M264.5,968.6C264.5,968.6,264.5,968.6,264.5,968.6l1.6,11.4c0.1,0,0.2-0.1,0.3-0.1c0,0,0,0,0,0l-1.7-11.4    C264.7,968.6,264.6,968.6,264.5,968.6z"/><path d="M220.7,1021.4l45.1-39.7c-0.1-0.1-0.2-0.2-0.2-0.3l-45.1,39.7C220.6,1021.1,220.7,1021.2,220.7,1021.4z"/><path d="M212.1,1059.1l8.2-37.1c0,0-0.1,0-0.1,0c-0.1,0-0.2,0-0.3-0.1l-8.2,37l0,0.1l0,0.1c0,0-0.1,0-0.1,0    c-0.1,0-0.2,0-0.2,0l0-0.1l0-0.1l-10.8-27.8c-0.1,0.1-0.2,0.1-0.3,0.1l10.8,27.8l0,0.1l0,0.1c-0.4,0.2-0.7,0.7-0.7,1.2    c0,0.7,0.6,1.3,1.3,1.3s1.3-0.6,1.3-1.3c0-0.5-0.3-1-0.8-1.2L212.1,1059.1L212.1,1059.1z"/><path d="M200.4,1031.1c0-0.1,0.1-0.1,0.1-0.2c0,0,0,0,0,0c0-0.1-0.1-0.2-0.2-0.3c-0.1,0-0.1-0.1-0.2-0.1    c-0.2,0-0.4,0.2-0.4,0.4c0,0,0,0,0,0c0,0.1,0.1,0.3,0.2,0.3c0,0,0.1,0,0.1,0c0,0,0,0,0.1,0    C200.2,1031.2,200.3,1031.2,200.4,1031.1z"/></g><g display="inline"><path d="M170.3,1257.1c0.1,0.1,0.2,0.1,0.3,0.2c0.2,0.1,0.3,0.1,0.5,0.1c0.7,0,1.3-0.6,1.3-1.3    c0-0.5-0.2-0.9-0.6-1.1c-0.1-0.1-0.2-0.1-0.3-0.1c-0.1,0-0.2,0-0.3,0c-0.7,0-1.3,0.6-1.3,1.3    C169.9,1256.6,170.1,1256.9,170.3,1257.1z"/><path d="M250.5,1281.1c-0.1,0-0.2,0-0.3,0c-0.1,0-0.2,0.1-0.3,0.1c-0.4,0.2-0.7,0.6-0.7,1.1    c0,0.3,0.1,0.5,0.2,0.7c0.1,0.1,0.2,0.2,0.2,0.3c0.2,0.2,0.5,0.3,0.8,0.3c0.7,0,1.3-0.6,1.3-1.3    C251.8,1281.7,251.2,1281.1,250.5,1281.1z"/><path d="M178.8,1227.2c0.1,0,0.1,0,0.2,0c0.1,0,0.2-0.1,0.3-0.2c0.2-0.2,0.3-0.4,0.3-0.6c0-0.2-0.1-0.3-0.1-0.5    c-0.1-0.1-0.2-0.2-0.3-0.2c-0.1-0.1-0.3-0.1-0.4-0.1c-0.5,0-0.8,0.4-0.8,0.8S178.4,1227.2,178.8,1227.2z"/><path d="M183.9,1234.3c0-0.3-0.2-0.6-0.5-0.7c-0.1-0.1-0.2-0.1-0.4-0.1c0,0-0.1,0-0.1,0c-0.1,0-0.2,0.1-0.3,0.1    c-0.2,0.1-0.3,0.4-0.3,0.7c0,0.3,0.2,0.6,0.4,0.7c0.1,0.1,0.2,0.1,0.4,0.1c0,0,0,0,0,0C183.6,1235.1,183.9,1234.8,183.9,1234.3z"/><path d="M174.2,1248.8c0.1,0.1,0.2,0.1,0.3,0.2c0.1,0,0.1,0,0.2,0c0.5,0,0.8-0.4,0.8-0.8c0-0.2-0.1-0.5-0.3-0.6    c-0.1-0.1-0.2-0.1-0.3-0.2c-0.1,0-0.1,0-0.2,0c-0.5,0-0.8,0.4-0.8,0.8C174,1248.4,174.1,1248.6,174.2,1248.8z"/><path d="M165.8,1278c-0.5,0-0.8,0.4-0.8,0.8c0,0.1,0,0.2,0,0.2c0,0.1,0.1,0.2,0.2,0.3c0.2,0.2,0.4,0.3,0.6,0.3    c0.4,0,0.8-0.3,0.8-0.7c0,0,0-0.1,0-0.1c0-0.1,0-0.2,0-0.2C166.5,1278.3,166.2,1278,165.8,1278z"/><path d="M188.5,1273.2c-0.4,0-0.8,0.3-0.8,0.8c0,0,0,0,0,0.1c0,0.1,0,0.2,0.1,0.3c0.1,0.3,0.4,0.5,0.8,0.5    c0.3,0,0.6-0.2,0.7-0.5c0-0.1,0.1-0.2,0.1-0.3c0,0,0,0,0,0C189.3,1273.6,188.9,1273.2,188.5,1273.2z"/><path d="M222.7,1274c-0.4,0-0.7,0.3-0.8,0.7c0,0,0,0.1,0,0.1c0,0.1,0,0.2,0,0.2c0.1,0.3,0.4,0.6,0.8,0.6    c0.3,0,0.6-0.2,0.7-0.4c0.1-0.1,0.1-0.2,0.1-0.4c0,0,0,0,0,0C223.5,1274.3,223.2,1274,222.7,1274z"/><path d="M235.9,1287.2C235.9,1287.2,235.9,1287.2,235.9,1287.2c-0.2,0-0.3,0-0.4,0.1c-0.3,0.1-0.5,0.4-0.5,0.8    c0,0.5,0.4,0.8,0.8,0.8c0.4,0,0.7-0.3,0.8-0.7c0,0,0-0.1,0-0.1c0-0.1,0-0.2,0-0.2C236.5,1287.5,236.3,1287.2,235.9,1287.2z"/><path d="M196.2,1275.4c-0.1,0-0.2,0.1-0.3,0.2c0,0.1-0.1,0.1-0.1,0.2c0,0.1,0,0.1,0.1,0.2    c0.1,0.1,0.2,0.2,0.3,0.2c0.1,0,0.2-0.1,0.3-0.1c0.1-0.1,0.1-0.1,0.1-0.2c0,0,0-0.1,0-0.1C196.5,1275.5,196.4,1275.4,196.2,1275.4    z"/><path d="M182.7,1274.8c-0.2,0-0.3,0.1-0.4,0.3c0,0,0,0,0,0c0,0.1,0.1,0.2,0.1,0.3c0.1,0,0.1,0.1,0.2,0.1    c0.1,0,0.3-0.1,0.3-0.2c0,0,0-0.1,0-0.2c0-0.1,0-0.1-0.1-0.2C182.9,1274.8,182.8,1274.8,182.7,1274.8z"/><path d="M248.5,1277.5C248.5,1277.5,248.5,1277.5,248.5,1277.5c0.2,0,0.3,0,0.3-0.1c0.1-0.1,0.1-0.1,0.1-0.2    c0-0.2-0.2-0.4-0.4-0.4c-0.1,0-0.1,0-0.2,0c-0.1,0.1-0.2,0.2-0.2,0.3c0,0,0,0,0,0C248.2,1277.3,248.3,1277.4,248.5,1277.5z"/><path d="M243.2,1276c0.1,0,0.2-0.1,0.3-0.2c0-0.1,0.1-0.1,0.1-0.2c0-0.1,0-0.1,0-0.2c-0.1-0.1-0.2-0.2-0.3-0.2    c-0.1,0-0.3,0.1-0.3,0.2c0,0,0,0.1,0,0.2c0,0.1,0,0.2,0.1,0.2C243,1275.9,243.1,1276,243.2,1276z"/><path d="M170.5,1257.5c-0.1-0.1-0.2-0.1-0.3-0.2l-7.9,12c0.1,0,0.2,0.1,0.3,0.2L170.5,1257.5z"/><path d="M172.2,1278.1l-5.4,0.5c0,0.1,0,0.2,0,0.3c0,0,0,0.1,0,0.1l5.4-0.5c0-0.1,0-0.1,0-0.2    C172.2,1278.2,172.2,1278.2,172.2,1278.1z"/><path d="M161.6,1271.2c-0.1,0-0.2-0.1-0.3-0.2l-7.4,13.6c0.1,0,0.2,0.1,0.3,0.2L161.6,1271.2z"/><path d="M154.4,1284.9c0.1,0.1,0.1,0.2,0.2,0.3l10.5-5.8c-0.1-0.1-0.1-0.2-0.2-0.3L154.4,1284.9z"/><path d="M174.1,1277.7c0.1,0.1,0.1,0.2,0.1,0.3l8-2.6c-0.1-0.1-0.1-0.2-0.1-0.3L174.1,1277.7z"/><path d="M187.5,1274l-4.3,0.9c0,0.1,0.1,0.2,0.1,0.2c0,0,0,0.1,0,0.1l4.3-0.9    C187.5,1274.3,187.5,1274.2,187.5,1274C187.5,1274,187.5,1274,187.5,1274z"/><path d="M174.5,1249.1c-0.1,0-0.2-0.1-0.3-0.2l-2.6,5.9c0.1,0,0.2,0.1,0.3,0.1L174.5,1249.1z"/><path d="M179.6,1225.8l3.4-3.2c-0.1-0.1-0.2-0.1-0.3-0.3l-3.4,3.2C179.4,1225.6,179.5,1225.7,179.6,1225.8z"/><path d="M249.4,1283.2l-4.1,3.8c0.1,0.1,0.2,0.2,0.2,0.3l4.1-3.8C249.5,1283.4,249.4,1283.3,249.4,1283.2z"/><path d="M183,1235.3c-0.1,0-0.2-0.1-0.4-0.1l-7.5,12c0.1,0,0.2,0.1,0.3,0.2L183,1235.3z"/><path d="M244.5,1287.3l-7.6,0.5c0,0.1,0,0.2,0,0.2c0,0,0,0.1,0,0.1l7.7-0.5c0-0.1-0.1-0.1-0.1-0.2    C244.5,1287.4,244.5,1287.4,244.5,1287.3z"/><path d="M248,1277.1c0-0.1,0.1-0.2,0.1-0.3l-4.4-1.2c0,0,0,0.1,0,0.1c0,0.1,0,0.2-0.1,0.3L248,1277.1z"/><path d="M248.6,1277.7l1.3,3.4c0.1-0.1,0.2-0.1,0.3-0.1l-1.3-3.4C248.8,1277.6,248.7,1277.6,248.6,1277.7z"/><path d="M235.9,1287C235.9,1287,235.9,1287,235.9,1287l-0.6-8.1c-0.1,0-0.2,0-0.3,0c0,0,0,0-0.1,0l0.7,8.1    C235.6,1287,235.7,1287,235.9,1287z"/><path d="M242.8,1275.9c0-0.1-0.1-0.2-0.1-0.3c0,0,0-0.1,0-0.1l-6.8,2c0.1,0.1,0.1,0.2,0.1,0.3L242.8,1275.9z"/><path d="M183.1,1222.6v10.7c0.1,0,0.3,0,0.4,0.1v-10.8c-0.1,0-0.1,0-0.2,0    C183.2,1222.6,183.2,1222.6,183.1,1222.6z"/><path d="M189.5,1274.1c0,0.1,0,0.2-0.1,0.4l6.3,1.5c0,0,0-0.1,0-0.1c0-0.1,0-0.2,0.1-0.2L189.5,1274.1z"/><path d="M179.1,1227.3l3.5,6.2c0.1-0.1,0.2-0.1,0.3-0.1l-3.5-6.2C179.3,1227.2,179.2,1227.3,179.1,1227.3z"/><path d="M221.7,1274.7l-24.9,0.9c0,0,0,0.1,0,0.1c0,0.1,0,0.2,0,0.2l25-0.9c0-0.1,0-0.2,0-0.3    C221.7,1274.8,221.7,1274.7,221.7,1274.7z"/><path d="M223.6,1275.2l10.3,2.7c0-0.1,0-0.2,0.1-0.4l-10.3-2.7C223.7,1275,223.7,1275.1,223.6,1275.2z"/><path d="M161.7,1271c0.1,0,0.1,0,0.2,0c0.5,0,0.8-0.4,0.8-0.8c0-0.2-0.1-0.4-0.2-0.6c-0.1-0.1-0.2-0.2-0.3-0.2    c-0.1,0-0.2,0-0.3,0c-0.5,0-0.8,0.4-0.8,0.8c0,0.2,0.1,0.5,0.3,0.6C161.5,1270.9,161.6,1271,161.7,1271z"/><path d="M154.3,1285C154.2,1285,154.2,1285,154.3,1285c-0.2-0.2-0.3-0.2-0.4-0.3c-0.1,0-0.2,0-0.2,0    c-0.5,0-0.8,0.4-0.8,0.8c0,0.5,0.4,0.8,0.8,0.8c0.5,0,0.8-0.4,0.8-0.8c0-0.1,0-0.1,0-0.2C154.4,1285.2,154.3,1285.1,154.3,1285z"/><path d="M173.9,1277.8c-0.1-0.2-0.4-0.4-0.7-0.4c-0.4,0-0.7,0.3-0.8,0.6c0,0.1,0,0.1,0,0.2c0,0.1,0,0.1,0,0.2    c0.1,0.4,0.4,0.6,0.8,0.6c0.5,0,0.8-0.4,0.8-0.8c0,0,0-0.1,0-0.1C174,1278,174,1277.9,173.9,1277.8z"/><path d="M235.2,1278.8c0.3-0.1,0.5-0.4,0.5-0.8c0,0,0,0,0,0c0-0.1,0-0.2-0.1-0.3c-0.1-0.3-0.4-0.4-0.7-0.4    c-0.3,0-0.6,0.2-0.7,0.4c-0.1,0.1-0.1,0.2-0.1,0.4c0,0,0,0,0,0c0,0.4,0.3,0.8,0.7,0.8c0,0,0.1,0,0.1,0    C235,1278.8,235.1,1278.8,235.2,1278.8z"/><path d="M183.3,1222.4c0.1,0,0.2,0,0.2-0.1c0.1-0.1,0.2-0.2,0.2-0.3s-0.1-0.2-0.2-0.3c0,0-0.1,0-0.1,0    c0,0-0.1,0-0.1,0c-0.2,0-0.4,0.2-0.4,0.4c0,0,0,0.1,0,0.1C183,1222.3,183.1,1222.4,183.3,1222.4z"/><path d="M245.1,1287.1c0,0-0.1,0-0.1,0c-0.1,0-0.3,0.1-0.3,0.2c0,0,0,0.1,0,0.1c0,0.1,0,0.2,0.1,0.2    c0.1,0.1,0.2,0.2,0.3,0.2c0.2,0,0.4-0.2,0.4-0.4c0,0,0-0.1,0-0.1C245.3,1287.3,245.2,1287.2,245.1,1287.1z"/></g><g display="inline"><path d="M234.5,1116.1c-0.5,0-1,0.3-1.2,0.7c-0.1,0.1-0.1,0.2-0.1,0.4c0,0.1,0,0.2,0,0.2c0,0.7,0.6,1.3,1.3,1.3    c0.6,0,1.1-0.4,1.3-1c0-0.1,0-0.2,0-0.4c0,0,0,0,0,0C235.9,1116.7,235.3,1116.1,234.5,1116.1z"/><path d="M206.9,1131c0-0.4-0.3-0.7-0.6-0.8c-0.1,0-0.2,0-0.3,0c0,0-0.1,0-0.1,0c-0.4,0.1-0.7,0.4-0.7,0.9    c0,0.2,0.1,0.4,0.2,0.6c0.1,0.1,0.2,0.2,0.3,0.2c0.1,0,0.2,0.1,0.3,0.1c0.1,0,0.2,0,0.4-0.1c0.1-0.1,0.2-0.1,0.3-0.2    C206.8,1131.4,206.9,1131.2,206.9,1131z"/><path d="M183.5,1137.2c0-0.3-0.2-0.6-0.5-0.8c-0.1-0.1-0.2-0.1-0.4-0.1c0,0,0,0,0,0c-0.5,0-0.9,0.4-0.9,0.9    c0,0.1,0,0.2,0,0.3c0,0.1,0.1,0.2,0.2,0.3c0.2,0.2,0.4,0.3,0.6,0.3C183.1,1138,183.5,1137.6,183.5,1137.2z"/><path d="M266.7,1121.2c-0.1,0-0.2,0.1-0.3,0.2c0,0.1-0.1,0.1-0.1,0.2c0,0.1,0,0.1,0,0.1c0.1,0.1,0.2,0.2,0.4,0.2    c0.2,0,0.4-0.2,0.4-0.4C267.1,1121.4,266.9,1121.2,266.7,1121.2z"/><path d="M216.9,1144.8C216.9,1144.8,216.9,1144.8,216.9,1144.8c-0.2,0-0.3,0.1-0.4,0.2c0,0,0,0.1,0,0.1    c0,0.2,0.2,0.4,0.4,0.4c0.2,0,0.4-0.2,0.4-0.4C217.3,1145,217.1,1144.8,216.9,1144.8z"/><path d="M192.3,1113c0.1,0,0.2,0,0.3-0.1c0.1-0.1,0.1-0.2,0.1-0.3c0,0,0-0.1,0-0.1c0-0.2-0.2-0.3-0.4-0.3    c-0.2,0-0.3,0.1-0.4,0.3c0,0,0,0.1,0,0.1c0,0.1,0,0.2,0.1,0.3C192.1,1112.9,192.2,1113,192.3,1113z"/><path d="M197.8,1115.1c0.2,0,0.4-0.2,0.4-0.4c0,0,0,0,0,0c0-0.1-0.1-0.3-0.2-0.3c-0.1,0-0.1-0.1-0.2-0.1    c-0.1,0-0.2,0-0.3,0.1c-0.1,0.1-0.1,0.2-0.1,0.3c0,0,0,0.1,0,0.1C197.5,1115,197.6,1115.1,197.8,1115.1z"/><path d="M174.1,1175.9c0,0-0.1,0-0.1,0c-0.1,0-0.2,0-0.3,0.1c-0.1,0.1-0.1,0.2-0.1,0.3c0,0.2,0.2,0.4,0.4,0.4    c0.2,0,0.4-0.2,0.4-0.4C174.3,1176.1,174.2,1176,174.1,1175.9z"/><path d="M197.2,1114.8C197.2,1114.8,197.2,1114.8,197.2,1114.8c0-0.2,0-0.3,0.1-0.4l-4.5-1.8c0,0,0,0,0,0    c0,0.1,0,0.3-0.1,0.4L197.2,1114.8z"/><path d="M207.4,1109.4c-0.1-0.1-0.2-0.2-0.2-0.3l-9,5.3c0.1,0.1,0.2,0.2,0.2,0.3L207.4,1109.4z"/><path d="M174,1175.7C174,1175.7,174,1175.7,174,1175.7l-5.2-29.4c-0.1,0.1-0.2,0.1-0.3,0.1c0,0-0.1,0-0.1,0    l5.3,29.4C173.8,1175.8,173.9,1175.7,174,1175.7z"/><path d="M191.8,1112.9c-0.1-0.1-0.1-0.2-0.1-0.3c0,0,0,0,0,0l-3.4,1.2c0.1,0.1,0.1,0.2,0.1,0.4L191.8,1112.9z"/><path d="M208.3,1108.9c0,0.1,0,0.3-0.1,0.3l24.8,7.9c0-0.1,0.1-0.3,0.1-0.4L208.3,1108.9    C208.3,1108.9,208.3,1108.9,208.3,1108.9z"/><path d="M187.9,1114.7C187.9,1114.7,187.9,1114.7,187.9,1114.7c-0.1,0-0.3-0.1-0.4-0.1l-4.8,21.5    c0.1,0,0.3,0,0.4,0.1L187.9,1114.7z"/><path d="M236.1,1117.5C236.1,1117.5,236.1,1117.5,236.1,1117.5c0,0.1,0,0.3,0,0.4l30.1,3.9c0,0,0-0.1,0-0.1    c0-0.1,0-0.2,0.1-0.3L236.1,1117.5z"/><path d="M168.8,1145.4c0.1,0.1,0.2,0.2,0.2,0.3l12.8-7.8c-0.1-0.1-0.2-0.2-0.2-0.3L168.8,1145.4z"/><path d="M187.9,1114.5C187.9,1114.5,187.9,1114.5,187.9,1114.5c0.2,0,0.4-0.2,0.4-0.3c0,0,0,0,0,0    c0-0.1-0.1-0.2-0.2-0.3c-0.1,0-0.1-0.1-0.2-0.1c-0.2,0-0.4,0.2-0.4,0.4c0,0.1,0,0.2,0.1,0.2    C187.6,1114.4,187.7,1114.5,187.9,1114.5z"/><path d="M168.7,1146.1c0.1-0.1,0.1-0.2,0.1-0.3c0,0,0,0,0,0c0-0.1-0.1-0.3-0.2-0.3c0,0-0.1,0-0.2,0    c-0.2,0-0.4,0.2-0.4,0.4c0,0.2,0.1,0.3,0.3,0.4c0,0,0.1,0,0.1,0C168.6,1146.2,168.7,1146.2,168.7,1146.1z"/><path d="M207.5,1109.2C207.6,1109.2,207.6,1109.2,207.5,1109.2c0.1,0,0.1,0.1,0.2,0.1c0.1,0,0.1,0,0.2,0    c0,0,0.1,0,0.1-0.1c0.1-0.1,0.1-0.2,0.1-0.3c0,0,0-0.1,0-0.1c0-0.2-0.2-0.3-0.4-0.3c-0.2,0-0.4,0.2-0.4,0.4c0,0,0,0,0,0    C207.4,1109.1,207.4,1109.2,207.5,1109.2z"/><path d="M187.6,1159.8l-4.2,15.9c0,0,0,0,0,0c0.1,0,0.2,0,0.3,0.1l4.2-16c0,0,0,0-0.1,0    C187.8,1159.9,187.7,1159.8,187.6,1159.8z"/><path d="M188.8,1152.3l-1,6.5c0,0,0.1,0,0.1,0c0.1,0,0.2,0,0.3,0.1l1-6.5c0,0-0.1,0-0.1,0    C189,1152.4,188.9,1152.3,188.8,1152.3z"/><path d="M207.5,1109.4l-1.6,20.5c0,0,0.1,0,0.1,0c0.1,0,0.2,0,0.3,0l1.6-20.5c0,0-0.1,0-0.1,0    C207.7,1109.5,207.6,1109.5,207.5,1109.4z"/><path d="M183.4,1175.9c0,0-0.1,0-0.1,0c-0.2,0-0.3,0.2-0.3,0.4c0,0.2,0.2,0.4,0.4,0.4c0.2,0,0.4-0.2,0.4-0.4    c0-0.1,0-0.2-0.1-0.3C183.6,1176,183.5,1175.9,183.4,1175.9z"/><path d="M187.9,1158.9c0,0-0.1,0-0.1,0c-0.1,0.1-0.2,0.2-0.2,0.4c0,0.1,0,0.2,0.1,0.3c0.1,0.1,0.2,0.1,0.3,0.1    c0,0,0.1,0,0.1,0c0.2,0,0.3-0.2,0.3-0.4c0-0.1-0.1-0.2-0.1-0.3C188.1,1159,188,1158.9,187.9,1158.9z"/><path d="M189.2,1151.4c0,0-0.1,0-0.1,0c-0.2,0-0.4,0.2-0.4,0.4c0,0.1,0,0.2,0.1,0.3c0.1,0.1,0.2,0.1,0.3,0.1    c0,0,0.1,0,0.1,0c0.2,0,0.3-0.2,0.3-0.4c0,0,0-0.1,0-0.1C189.4,1151.6,189.3,1151.5,189.2,1151.4z"/><path d="M206.8,1131.7c-0.1,0.1-0.2,0.2-0.3,0.2l9.9,13c0.1-0.1,0.2-0.2,0.3-0.2L206.8,1131.7z"/><path d="M198.4,1141.5l-9.1,9.8c0.1,0.1,0.2,0.2,0.3,0.3l9.1-9.8c-0.1,0-0.1-0.1-0.1-0.1    C198.5,1141.6,198.4,1141.5,198.4,1141.5z"/><path d="M199.1,1140.7C199.1,1140.7,199.1,1140.7,199.1,1140.7c0.1,0,0.2,0.1,0.3,0.2l6.2-8.9    c-0.1-0.1-0.2-0.1-0.3-0.2L199.1,1140.7z"/><path d="M199.3,1141.1c0-0.1-0.1-0.2-0.2-0.2c0,0-0.1,0-0.1,0c0,0,0,0,0,0c-0.2,0-0.4,0.2-0.4,0.4    c0,0,0,0.1,0,0.1c0,0.1,0.1,0.1,0.1,0.2c0,0,0.1,0.1,0.2,0.1c0,0,0.1,0,0.1,0c0,0,0.1,0,0.1,0c0.2,0,0.3-0.2,0.3-0.4    C199.3,1141.2,199.3,1141.2,199.3,1141.1C199.3,1141.1,199.3,1141.1,199.3,1141.1z"/></g></g><g><g><path d="M47,29.6c0,0.2,0.1,0.5,0.2,0.7c0.1,0.1,0.1,0.2,0.2,0.3c0.2,0.2,0.5,0.3,0.9,0.3c0.6,0,1.1-0.4,1.2-0.9    c0-0.1,0.1-0.2,0.1-0.4c0,0,0,0,0,0c0-0.7-0.6-1.3-1.3-1.3c-0.1,0-0.1,0-0.2,0c-0.1,0-0.2,0.1-0.4,0.1C47.3,28.6,47,29.1,47,29.6z    "/><path d="M75.5,53c0-0.3-0.1-0.6-0.3-0.8c-0.1-0.1-0.2-0.2-0.3-0.2c-0.1-0.1-0.3-0.1-0.4-0.2c-0.1,0-0.2,0-0.3,0    c0,0,0,0-0.1,0c-0.5,0-0.8,0.3-1.1,0.7c-0.1,0.1-0.1,0.2-0.1,0.3c0,0.1,0,0.2,0,0.3c0,0.7,0.6,1.3,1.3,1.3c0.2,0,0.4-0.1,0.6-0.2    c0.1-0.1,0.2-0.1,0.3-0.2C75.3,53.6,75.5,53.3,75.5,53z"/><path d="M41.5,35.4c-0.1-0.1-0.1-0.2-0.2-0.3C41.1,35,40.9,35,40.7,35c-0.3,0-0.6,0.2-0.8,0.5    c0,0.1-0.1,0.2-0.1,0.3c0,0,0,0,0,0c0,0.5,0.4,0.8,0.8,0.8c0.1,0,0.2,0,0.3-0.1c0.1,0,0.2-0.1,0.3-0.2c0.1-0.1,0.2-0.3,0.2-0.5    C41.6,35.7,41.5,35.5,41.5,35.4z"/><path d="M37.6,16c0,0.5,0.4,0.8,0.8,0.8c0.5,0,0.8-0.4,0.8-0.8c0-0.1,0-0.2-0.1-0.3c0-0.1-0.1-0.2-0.2-0.3    c-0.1-0.1-0.3-0.2-0.6-0.2c-0.2,0-0.5,0.1-0.6,0.3c-0.1,0.1-0.1,0.2-0.2,0.3C37.6,15.8,37.6,15.9,37.6,16z"/><path d="M55,31.1c0.1,0.1,0.2,0.2,0.3,0.3c0.1,0.1,0.3,0.1,0.4,0.1c0.3,0,0.6-0.2,0.7-0.4    c0.1-0.1,0.1-0.2,0.1-0.3c0,0,0-0.1,0-0.1c0-0.1,0-0.2,0-0.3c0-0.1-0.1-0.2-0.2-0.3c-0.2-0.2-0.4-0.2-0.6-0.2    c-0.4,0-0.7,0.2-0.8,0.5c0,0.1-0.1,0.2-0.1,0.3c0,0,0,0,0,0.1C54.9,30.9,54.9,31,55,31.1z"/><path d="M75.7,37.7c0-0.1,0-0.2,0-0.2c0,0,0-0.1,0-0.1c-0.1-0.4-0.4-0.7-0.8-0.7c-0.1,0-0.1,0-0.2,0    c-0.1,0-0.2,0.1-0.3,0.2c-0.1,0.1-0.1,0.1-0.2,0.2c-0.1,0.1-0.1,0.2-0.1,0.3c0,0,0,0.1,0,0.1c0,0.4,0.2,0.7,0.6,0.8    c0.1,0,0.2,0,0.3,0c0,0,0.1,0,0.1,0C75.3,38.2,75.6,38,75.7,37.7z"/><path d="M79.4,59.7c-0.1,0-0.2,0-0.3,0.1c-0.1,0-0.2,0.1-0.3,0.2c-0.1,0.1-0.2,0.3-0.2,0.6c0,0.5,0.4,0.8,0.8,0.8    c0.5,0,0.8-0.4,0.8-0.8S79.9,59.7,79.4,59.7z"/><path d="M38.9,80.5C38.9,80.5,38.9,80.5,38.9,80.5c0,0.1,0.1,0.3,0.2,0.3c0.1,0,0.1,0.1,0.2,0.1    c0.2,0,0.4-0.2,0.4-0.4c0-0.2-0.2-0.4-0.4-0.4C39.1,80.1,38.9,80.3,38.9,80.5z"/><path d="M43.1,93.5c-0.1,0-0.2,0.1-0.3,0.1c-0.1,0.1-0.1,0.1-0.1,0.2c0,0,0,0.1,0,0.1c0.1,0.1,0.2,0.2,0.3,0.2    c0.2,0,0.4-0.2,0.4-0.4C43.5,93.7,43.3,93.5,43.1,93.5z"/><path d="M99.1,28.7c-0.2,0-0.4,0.2-0.4,0.4c0,0,0,0,0,0c0,0.1,0.1,0.3,0.2,0.3c0,0,0.1,0,0.2,0    c0.2,0,0.4-0.2,0.4-0.4C99.5,28.9,99.3,28.7,99.1,28.7z"/><path d="M22.2,6.5c0,0,0.1,0,0.1,0c0.1,0,0.2-0.2,0.2-0.3c0,0,0,0,0-0.1c0-0.2-0.2-0.4-0.4-0.4s-0.4,0.2-0.4,0.4    C21.8,6.3,22,6.5,22.2,6.5z"/><path d="M25.9,9c0,0.2,0.2,0.4,0.4,0.4c0.1,0,0.1,0,0.2-0.1c0.1-0.1,0.2-0.2,0.2-0.3c0,0,0,0,0,0    c0-0.2-0.2-0.4-0.4-0.4c-0.1,0-0.1,0-0.1,0C26,8.8,25.9,8.9,25.9,9C25.9,9,25.9,9,25.9,9z"/><path d="M25.7,8.9c0-0.1,0.1-0.2,0.2-0.3l-3.2-2.3c0,0.1-0.1,0.2-0.2,0.3L25.7,8.9z"/><path d="M37.4,15.7c0-0.1,0.1-0.2,0.2-0.3L26.8,9.1c0,0.1-0.1,0.2-0.2,0.3L37.4,15.7z"/><path d="M39.7,35.8c0-0.1,0-0.3,0.1-0.4l-22.2-4c0,0,0,0.1,0,0.1c0,0.1,0,0.2-0.1,0.3L39.7,35.8z"/><path d="M11.5,70.3L1.2,47.5c-0.1,0.1-0.2,0.1-0.3,0.1c0,0,0,0,0,0l10.3,22.8l10,19.6c0.1-0.1,0.2-0.2,0.3-0.2    L11.5,70.3z"/><path d="M42.9,13.3c-0.1-0.1-0.2-0.2-0.2-0.3l-3.6,2.3c0.1,0.1,0.2,0.2,0.2,0.3L42.9,13.3z"/><path d="M43.2,13.4C43.2,13.4,43.2,13.4,43.2,13.4l4.5,14.9c0.1,0,0.2-0.1,0.4-0.1l-4.5-14.9    C43.5,13.3,43.4,13.4,43.2,13.4z"/><path d="M47,30.4L41.4,35c0.1,0.1,0.2,0.2,0.2,0.3l5.7-4.6C47.2,30.6,47.1,30.5,47,30.4z"/><path d="M1.4,46.8L16.8,32c-0.1-0.1-0.2-0.1-0.3-0.3L1.1,46.5C1.2,46.6,1.3,46.7,1.4,46.8z"/><path d="M21.8,90c0,0-0.1,0-0.2-0.1c0,0,0,0,0,0c-0.1,0-0.2,0.1-0.3,0.2c0,0.1-0.1,0.1-0.1,0.2    c0,0.2,0.2,0.4,0.4,0.4c0.1,0,0.2-0.1,0.3-0.1c0.1-0.1,0.1-0.1,0.1-0.2c0,0,0,0,0,0c0,0,0-0.1,0-0.1C21.9,90.1,21.8,90.1,21.8,90z    "/><path d="M1.1,47.3c0.1-0.1,0.1-0.2,0.1-0.3c0,0,0-0.1,0-0.1c0-0.1-0.2-0.2-0.3-0.2c0,0,0,0,0,0    c-0.2,0-0.4,0.2-0.4,0.4c0,0.2,0.1,0.3,0.3,0.3c0,0,0.1,0,0.1,0C1,47.4,1.1,47.4,1.1,47.3z"/><path d="M17,31.8C17,31.8,17,31.8,17,31.8c0.2,0,0.3,0,0.4-0.1c0.1-0.1,0.1-0.1,0.1-0.2c0,0,0-0.1,0-0.1    c-0.1-0.1-0.2-0.2-0.3-0.2c-0.2,0-0.4,0.2-0.4,0.4c0,0,0,0.1,0,0.1C16.7,31.7,16.8,31.8,17,31.8z"/><path d="M43.1,13.2C43.1,13.2,43.1,13.2,43.1,13.2c0.1,0,0.1,0,0.1,0c0.1,0,0.2-0.1,0.3-0.1    c0.1-0.1,0.1-0.1,0.1-0.2c0-0.2-0.2-0.4-0.4-0.4c-0.2,0-0.4,0.2-0.4,0.4c0,0,0,0,0,0C42.9,13,43,13.1,43.1,13.2z"/><path d="M22.1,90.3l16.8-9.4c-0.1-0.1-0.2-0.2-0.2-0.3l-16.8,9.4C22,90,22.1,90.1,22.1,90.3    C22.1,90.3,22.1,90.3,22.1,90.3C22.1,90.3,22.1,90.3,22.1,90.3c0,0.2,0,0.3-0.1,0.4L42.6,94c0,0,0-0.1,0-0.1c0-0.1,0-0.2,0.1-0.3    L22.1,90.3z"/><path d="M74.6,36.5L69,24.7c-0.1,0.1-0.2,0.1-0.3,0.2l5.6,11.8C74.4,36.6,74.5,36.5,74.6,36.5z"/><path d="M74.6,38.4l-0.5,13c0,0,0,0,0.1,0c0.1,0,0.2,0,0.3,0l0.5-13c0,0-0.1,0-0.1,0    C74.8,38.5,74.7,38.5,74.6,38.4z"/><path d="M67,24.3c-0.1-0.1-0.1-0.2-0.2-0.3l-10.4,6c0.1,0.1,0.1,0.2,0.2,0.3L67,24.3z"/><path d="M46.1,41.7l9-10.2c-0.1-0.1-0.2-0.2-0.3-0.3l-9,10.2C45.9,41.5,46,41.6,46.1,41.7z"/><path d="M75,51.7c0.1,0.1,0.2,0.2,0.3,0.2l10.4-12.6c-0.1-0.1-0.2-0.1-0.3-0.2L75,51.7z"/><path d="M98.6,29.2l-11.7,8.5c0.1,0.1,0.2,0.2,0.2,0.3l11.7-8.5C98.7,29.4,98.6,29.3,98.6,29.2z"/><path d="M44.9,41.4l-3.4-4.9c-0.1,0.1-0.2,0.2-0.3,0.2l3.4,4.9C44.6,41.5,44.7,41.4,44.9,41.4z"/><path d="M67.2,24.3c0.2,0.3,0.6,0.5,1,0.5c0.1,0,0.3,0,0.4-0.1c0.1,0,0.2-0.1,0.3-0.2c0.3-0.2,0.6-0.6,0.6-1.1    c0-0.4-0.2-0.8-0.5-1c-0.1-0.1-0.2-0.1-0.3-0.2c-0.2-0.1-0.3-0.1-0.5-0.1c-0.7,0-1.3,0.6-1.3,1.3c0,0.2,0,0.3,0.1,0.5    C67,24.1,67.1,24.2,67.2,24.3z"/><path d="M45.7,41.6c-0.1-0.1-0.3-0.1-0.4-0.1c-0.1,0-0.2,0-0.3,0.1c-0.1,0-0.2,0.1-0.3,0.2    c-0.1,0.1-0.2,0.3-0.2,0.6c0,0.5,0.4,0.8,0.8,0.8c0.3,0,0.5-0.2,0.7-0.4c0.1-0.1,0.1-0.2,0.1-0.3c0,0,0-0.1,0-0.1    c0-0.2-0.1-0.3-0.2-0.5C45.9,41.7,45.8,41.6,45.7,41.6z"/><path d="M86.7,37.9c-0.1-0.1-0.3-0.2-0.5-0.2c-0.4,0-0.7,0.2-0.8,0.6c0,0.1,0,0.2,0,0.3c0,0,0,0.1,0,0.1    c0,0.1,0.1,0.3,0.2,0.4c0.1,0.1,0.2,0.2,0.3,0.2c0.1,0.1,0.2,0.1,0.4,0.1c0.5,0,0.8-0.4,0.8-0.8c0-0.1,0-0.2-0.1-0.3    C86.9,38,86.8,37.9,86.7,37.9z"/><path d="M46.2,42.8l26.6,9.8c0-0.1,0.1-0.2,0.1-0.3l-26.6-9.8C46.3,42.6,46.2,42.7,46.2,42.8z"/><path d="M79,59.6L75.2,54c-0.1,0.1-0.2,0.2-0.3,0.2l3.8,5.6C78.8,59.7,78.9,59.7,79,59.6z"/><path d="M54.7,30.7c0-0.1,0-0.2,0.1-0.3l-4.9-0.7c0,0.1,0,0.2-0.1,0.4L54.7,30.7C54.7,30.7,54.7,30.7,54.7,30.7z"/><path d="M56.5,31.2l17.3,6.1c0-0.1,0.1-0.2,0.1-0.3l-17.3-6.1C56.7,31,56.6,31.1,56.5,31.2z"/><path d="M75.9,37.3c0,0,0,0.1,0,0.1c0,0.1,0,0.2,0,0.3l9.3,0.9c0,0,0-0.1,0-0.1c0-0.1,0-0.2,0-0.3L75.9,37.3z"/><path d="M77.3,8.2C77.2,8.1,77,8.1,77,8l-8.2,14.1c0.1,0.1,0.2,0.1,0.3,0.2L77.3,8.2z"/><path d="M77.4,8C77.4,8,77.4,8,77.4,8c0.2,0,0.4-0.2,0.4-0.4c0-0.2-0.2-0.4-0.4-0.4S77,7.4,77,7.6    c0,0.1,0,0.1,0.1,0.2C77.1,7.9,77.2,8,77.4,8z"/></g></g><text x="0" y="115" fill="#000000" font-size="5px" font-weight="bold" font-family="'Helvetica Neue', Helvetica, Arial-Unicode, Arial, Sans-serif">Created by Ilaria Bernareggi</text><text x="0" y="120" fill="#000000" font-size="5px" font-weight="bold" font-family="'Helvetica Neue', Helvetica, Arial-Unicode, Arial, Sans-serif">from the Noun Project</text></svg>